<svg width="33" height="34" viewBox="0 0 33 34" fill="none" xmlns="http://www.w3.org/2000/svg">
<mask id="path-1-inside-1_130_470" fill="white">
<path d="M31.7308 16.5C31.7308 8.08828 24.9117 1.26923 16.5 1.26923C8.08828 1.26923 1.26923 8.08828 1.26923 16.5C1.26923 24.9117 8.08828 31.7308 16.5 31.7308V33C7.3873 33 0 25.6127 0 16.5C0 7.3873 7.3873 0 16.5 0C25.6127 0 33 7.3873 33 16.5C33 25.6127 25.6127 33 16.5 33V31.7308C24.9117 31.7308 31.7308 24.9117 31.7308 16.5Z"/>
</mask>
<path d="M31.7308 16.5C31.7308 8.08828 24.9117 1.26923 16.5 1.26923C8.08828 1.26923 1.26923 8.08828 1.26923 16.5C1.26923 24.9117 8.08828 31.7308 16.5 31.7308V33C7.3873 33 0 25.6127 0 16.5C0 7.3873 7.3873 0 16.5 0C25.6127 0 33 7.3873 33 16.5C33 25.6127 25.6127 33 16.5 33V31.7308C24.9117 31.7308 31.7308 24.9117 31.7308 16.5Z" fill="black"/>
<path d="M31.7308 16.5C31.7308 8.08828 24.9117 1.26923 16.5 1.26923C8.08828 1.26923 1.26923 8.08828 1.26923 16.5C1.26923 24.9117 8.08828 31.7308 16.5 31.7308V33C7.3873 33 0 25.6127 0 16.5C0 7.3873 7.3873 0 16.5 0C25.6127 0 33 7.3873 33 16.5C33 25.6127 25.6127 33 16.5 33V31.7308C24.9117 31.7308 31.7308 24.9117 31.7308 16.5Z" fill="black" fill-opacity="0.2"/>
<path d="M31.7308 16.5H39.7308C39.7308 3.67 29.33 -6.73077 16.5 -6.73077V1.26923V9.26923C20.4934 9.26923 23.7308 12.5066 23.7308 16.5H31.7308ZM16.5 1.26923V-6.73077C3.67 -6.73077 -6.73077 3.67 -6.73077 16.5H1.26923H9.26923C9.26923 12.5066 12.5066 9.26923 16.5 9.26923V1.26923ZM1.26923 16.5H-6.73077C-6.73077 29.33 3.67 39.7308 16.5 39.7308V31.7308V23.7308C12.5066 23.7308 9.26923 20.4934 9.26923 16.5H1.26923ZM16.5 31.7308H8.5V33H16.5H24.5V31.7308H16.5ZM16.5 33V25C11.8056 25 8 21.1944 8 16.5H0H-8C-8 30.031 2.96902 41 16.5 41V33ZM0 16.5H8C8 11.8056 11.8056 8 16.5 8V0V-8C2.96902 -8 -8 2.96902 -8 16.5H0ZM16.5 0V8C21.1944 8 25 11.8056 25 16.5H33H41C41 2.96902 30.031 -8 16.5 -8V0ZM33 16.5H25C25 21.1944 21.1944 25 16.5 25V33V41C30.031 41 41 30.031 41 16.5H33ZM16.5 33H24.5V31.7308H16.5H8.5V33H16.5ZM16.5 31.7308V39.7308C29.33 39.7308 39.7308 29.33 39.7308 16.5H31.7308H23.7308C23.7308 20.4934 20.4934 23.7308 16.5 23.7308V31.7308Z" fill="black" mask="url(#path-1-inside-1_130_470)"/>
<path d="M18.2442 26.0873C18.2442 24.6296 18.2433 23.5974 18.1345 22.8307C18.0276 22.0765 17.8246 21.6481 17.472 21.3473L17.3471 21.2409L17.337 21.0776C17.2716 20.0367 17.2494 18.6997 17.4763 17.5336C17.6982 16.3934 18.19 15.2636 19.2822 14.88C20.4031 14.4864 21.7219 14.1582 22.9751 13.8225C24.2424 13.483 25.4434 13.1355 26.3814 12.6999C26.7807 12.5145 27.0009 12.2525 27.1151 11.9683C27.233 11.675 27.2485 11.3308 27.1848 10.9824C27.1212 10.6343 26.9825 10.3051 26.8215 10.0579C26.7412 9.93466 26.6603 9.83922 26.5879 9.77383C26.512 9.70531 26.4642 9.68646 26.4516 9.68333C25.438 9.43118 25.2097 9.43523 22.5968 9.04527L22.5892 9.04426L22.5819 9.04275C21.8355 8.90127 21.2849 8.61369 20.8558 8.23982C20.4325 7.87097 20.1435 7.43182 19.9019 7.0174C19.6501 6.58531 19.4663 6.21458 19.2202 5.87667C18.9883 5.55838 18.7262 5.3094 18.3615 5.15113C17.3196 4.78704 16.4131 4.69925 15.4447 4.83475C14.4637 4.97202 13.4042 5.33994 12.0561 5.91423C10.017 6.96399 8.06199 9.30335 7.00145 11.4926C6.47018 12.5894 6.18655 13.6021 6.20289 14.3595C6.21098 14.7346 6.29199 15.0213 6.4266 15.2254C6.5554 15.4207 6.75075 15.568 7.0506 15.6431L7.4357 15.7344C8.3068 15.9366 8.98537 16.0648 9.52282 16.1282C10.14 16.2009 10.5441 16.1846 10.8268 16.1143C11.3367 15.9875 11.5274 15.6754 11.9244 14.9511L11.9302 14.9403C12.4877 13.8299 12.7389 12.7456 12.8977 11.6867C12.9776 11.1541 13.0334 10.6352 13.0948 10.1157C13.1558 9.60019 13.222 9.0868 13.3226 8.58645L13.3543 8.42915L13.4883 8.34016C13.9112 8.05961 14.2882 7.91392 14.6836 7.93705C15.0638 7.9593 15.3962 8.1368 15.7203 8.33032L15.9093 8.44326V8.66233C15.9093 11.6622 15.6462 13.3984 14.7092 15.5294L14.6955 15.5607L14.6765 15.5889C13.2978 17.6468 10.9772 18.3208 9.03638 18.7109C7.62605 19.4293 7.33536 20.425 6.49196 21.544L3.91435 24.9637C6.44709 29.7573 10.5905 31.5011 14.071 32.0292C15.8394 32.2974 17.4302 32.25 18.5358 32.128C18.8888 32.089 19.1896 32.0424 19.4289 31.9972C19.3984 31.9528 19.3684 31.9067 19.3395 31.8588C19.1404 31.5285 18.9547 31.0794 18.795 30.536C18.4748 29.4459 18.2442 27.9241 18.2442 26.0873ZM20.099 32.5303L20.1137 32.5334L20.0909 32.5276C20.0939 32.5284 20.0965 32.5297 20.099 32.5303ZM19.0225 26.0873C19.0225 27.8644 19.246 29.3114 19.5419 30.3187C19.6903 30.824 19.8533 31.2058 20.0068 31.4604C20.0836 31.5879 20.1519 31.673 20.2062 31.7249C20.2472 31.764 20.2697 31.774 20.2723 31.7753C20.3025 31.7815 20.3844 31.8012 20.4608 31.8648C20.5096 31.9054 20.5696 31.9756 20.5938 32.0798C20.6184 32.1855 20.5948 32.2774 20.5655 32.339C20.5169 32.441 20.4379 32.4944 20.4185 32.5076C20.3859 32.5298 20.3537 32.546 20.3298 32.5571C20.2395 32.5988 20.1091 32.638 19.9645 32.674C19.6623 32.7493 19.201 32.8337 18.6215 32.8976C17.4612 33.0257 15.8008 33.0751 13.9535 32.7948C10.2534 32.2334 5.77664 30.3421 3.10945 25.1005L3 24.8858L5.86922 21.0794C6.57402 20.1443 7.06443 18.8254 8.73059 17.9965L8.7772 17.9733L8.82838 17.9632C10.7581 17.5791 12.8056 16.9602 14.0105 15.1863C14.8556 13.2531 15.1166 11.6675 15.1295 8.88569C14.9164 8.76988 14.7725 8.71812 14.638 8.71023C14.5029 8.70233 14.3296 8.73728 14.0543 8.90031C13.977 9.31827 13.9213 9.75206 13.8676 10.2062C13.8074 10.7151 13.7497 11.2529 13.6674 11.8012C13.5021 12.9035 13.2344 14.0771 12.6254 15.2892L12.6223 15.2955L12.6188 15.3016L12.6076 15.322C12.235 16.0019 11.902 16.645 11.0158 16.8656C10.6005 16.9689 10.0883 16.9745 9.43136 16.8971C8.77136 16.8193 7.93763 16.6541 6.86718 16.3959L6.86439 16.3951C6.38754 16.2765 6.02021 16.0207 5.77599 15.6505C5.53719 15.2884 5.43473 14.8459 5.42459 14.3761C5.40447 13.4435 5.7451 12.3022 6.30017 11.1563C7.41062 8.864 9.47226 6.36754 11.71 5.22046L11.7222 5.21416L11.7348 5.20861C13.1037 4.62486 14.2453 4.22053 15.3363 4.06787C16.3705 3.92315 17.3456 4.00621 18.4175 4.35224L18.6331 4.42509L18.6453 4.42938L18.6569 4.43417C19.1945 4.66339 19.5618 5.02571 19.8505 5.42214C20.1273 5.80218 20.357 6.25434 20.5753 6.62892C20.804 7.02118 21.042 7.37266 21.3686 7.65723C21.6884 7.93587 22.1092 8.16364 22.7215 8.28066C25.2888 8.66373 25.5801 8.66827 26.6406 8.93208C26.8225 8.97736 26.9815 9.08357 27.1108 9.20031C27.2436 9.32021 27.3664 9.47056 27.4746 9.63669C27.6906 9.96829 27.8681 10.3933 27.9504 10.8437C28.0327 11.2939 28.0238 11.793 27.8377 12.256C27.6479 12.728 27.2842 13.1354 26.7108 13.4018C25.7031 13.8697 24.4394 14.2321 23.1773 14.5702C21.901 14.9121 20.6255 15.2296 19.5411 15.6104C18.8693 15.8464 18.4531 16.5881 18.2404 17.6808C18.043 18.6952 18.0491 19.8817 18.1054 20.8764C18.5729 21.3374 18.7948 21.9437 18.9052 22.7225C19.0235 23.5562 19.0225 24.6537 19.0225 26.0873Z" fill="black" stroke="black"/>
<path d="M18 8.69231C18 8.30996 18.4477 8 19 8V8C19.5523 8 20 8.30996 20 8.69231V10.3077C20 10.69 19.5523 11 19 11V11C18.4477 11 18 10.69 18 10.3077V8.69231Z" fill="#010101"/>
</svg>
