<svg width="34" height="30" viewBox="0 0 34 30" fill="none" xmlns="http://www.w3.org/2000/svg">
<path d="M16.2959 1L33 3.3662L18.4576 11.8451L2.73612 9.08451L16.2959 1Z" fill="white"/>
<path d="M2.73612 9.08451L16.2959 1L33 3.3662L18.4576 11.8451L2.73612 9.08451ZM2.73612 9.08451C1.4915 10.1362 -0.250965 12.7915 2.73612 15M2.73612 15C6.82369 15.7887 14.9203 17.169 18.4576 17.7606L33 9.08451M2.73612 15C1.55702 15.9859 -0.0937302 18.5493 2.73612 20.9155M2.73612 20.9155C6.19483 21.3887 14.6582 22.8216 18.4576 23.4789L33 15M2.73612 20.9155C1.426 21.9014 -0.40816 24.3465 2.73612 26.2394C6.50922 26.8704 14.7892 28.3427 18.4576 29L33 20.3239" stroke="black" stroke-width="2" stroke-linecap="round" stroke-linejoin="round"/>
</svg>
