<svg width="373" height="358" viewBox="0 0 373 358" fill="none" xmlns="http://www.w3.org/2000/svg">
<path d="M160.798 348.522L112.298 330.213L103.143 320.522V297.288H88.7004L74.2579 291.115L66.005 284.942L55.6889 266.421L47.2981 256.132L33.2981 249.959L26.8038 210.861L12.7981 195.022L3.2981 159.022L18.551 140.895L37.1199 132.664V103.855L51.5625 54.4675L121.712 13.3115L156.787 7.13807L214.557 3.02246L282.643 17.4271L330.097 54.4675L363.108 77.1034L369.298 93.5658L363.108 118.259L358.982 140.895C358.294 143.639 355.681 150.361 350.729 155.3C355.681 165.177 352.792 173.134 350.729 175.878L340.413 179.994L344.539 188.225V198.514L340.413 210.861L336.287 223.207L323.907 239.67V249.959L313.591 256.132L305.338 266.421V274.652L299.149 286.999L288.833 297.288C282.643 297.288 269.438 298.523 266.137 303.462C262.836 308.4 241.051 317.163 232.798 324.022V345.522L207.298 354.907L160.798 348.522Z" fill="white" stroke="black" stroke-width="6"/>
<path d="M220.678 318.333L221.548 337.493C218.138 340.623 206.778 345.773 188.658 341.423C170.538 337.063 139.868 332.923 112.638 315.493L110.958 254.133C114.828 262.843 120.428 273.563 125.688 276.593C134.248 285.153 157.768 295.493 157.768 295.493C157.768 295.493 186.998 309.393 192.698 310.463C196.148 311.113 212.078 315.123 227.728 314.973C225.108 315.583 222.208 319.203 220.678 318.333Z" stroke="#010101" stroke-width="3.49"/>
<path d="M314.548 88.4224C306.828 85.1924 298.598 82.1524 291.058 79.4524C298.608 82.1324 306.928 84.9924 314.548 88.4224Z" stroke="#010101" stroke-width="3.49"/>
<path d="M310.768 97.2424L303.418 114.392L302.458 116.612L300.108 122.092L297.298 128.662L294.998 134.012L292.538 139.772L290.428 144.672L289.948 145.802L289.488 151.532L289.298 153.872L285.338 202.962L284.018 219.322L283.028 231.682L281.678 248.402C281.728 248.942 281.768 249.522 281.808 250.142C282.338 259.282 278.958 274.152 269.978 279.862C257.998 287.482 252.828 297.132 244.548 306.062C240.078 309.052 234.048 313.522 227.728 314.972C211.398 316.042 196.148 311.112 192.698 310.462C186.998 309.392 157.768 295.492 157.768 295.492C157.768 295.492 134.248 285.152 125.688 276.592C120.428 273.562 114.828 262.842 110.958 254.132L110.678 243.832C110.078 245.042 109.268 246.402 108.288 247.772C103.958 253.822 96.2482 260.022 87.5882 253.632C74.2982 243.832 56.4382 219.432 65.3682 203.752C74.2982 188.062 95.8682 193.512 103.268 210.502C108.328 222.102 98.9382 173.952 91.2982 137.232C92.3082 136.602 93.3282 135.962 94.3682 135.312C100.128 139.492 110.438 143.582 127.228 139.992C156.688 133.692 203.258 102.802 203.258 102.802C203.258 102.802 206.478 101.502 212.088 99.7624C217.948 97.9424 226.418 95.6424 236.558 93.8624C251.268 91.2824 269.478 89.7724 288.328 92.3524C297.778 93.6424 305.098 95.3524 310.768 97.2424Z" stroke="#010101" stroke-width="3.49"/>
<path d="M322.588 127.363C319.498 127.863 314.028 127.913 309.828 127.853C309.788 127.813 309.758 127.773 309.718 127.733C314.228 127.283 320.808 126.413 324.938 124.793C341.288 118.413 352.018 104.083 314.548 88.4225C306.928 84.9925 298.608 82.1325 291.058 79.4525C290.558 79.2725 290.058 79.1025 289.558 78.9225C268.178 71.3225 221.128 75.1225 178.348 88.9025C152.988 97.0725 120.108 119.113 94.3681 135.313C93.3281 135.963 92.3081 136.603 91.2981 137.233C75.0581 147.373 62.0381 154.743 56.2181 154.013C47.9981 152.983 48.6681 145.013 51.0181 137.903C51.0081 137.883 50.9981 137.863 50.9981 137.843C50.4981 136.583 49.9881 135.173 49.4581 133.573C42.6981 113.143 59.0681 71.3225 59.0681 71.3225C59.0681 71.3225 127.028 14.2925 206.388 19.0425C285.758 23.7925 311.898 66.5625 311.898 66.5625L349.918 95.5525C349.918 95.5525 353.058 122.453 322.588 127.363Z" stroke="#010101" stroke-width="3.49"/>
<path d="M314.548 88.4226C306.828 85.1926 298.598 82.1526 291.058 79.4526C298.608 82.1326 306.928 84.9926 314.548 88.4226Z" stroke="#010101" stroke-width="3.49"/>
<path d="M51.1882 137.952C51.4482 138.432 51.5982 138.872 51.7482 139.362C51.7982 139.662 51.8682 139.982 52.0182 140.272C52.1482 140.722 51.5482 140.572 51.1782 140.512C50.8582 140.452 50.0282 140.222 49.5782 139.892C48.9282 139.292 48.5482 138.942 48.2682 138.362C48.1282 137.982 48.7682 138.152 48.9382 138.062L49.3382 137.942C49.8382 137.842 50.2882 137.772 50.8382 137.742L51.2082 137.952H51.1882Z" fill="#010101"/>
<path d="M50.8181 137.733C51.2481 135.693 51.7781 133.553 52.3181 131.543C52.4481 131.043 52.5081 130.503 52.5781 129.983C52.7381 128.883 53.4381 128.103 54.2881 127.393C54.7481 127.023 55.2681 126.673 56.0181 126.383L56.4181 126.523C57.2981 128.193 57.5081 130.153 56.4181 131.663C55.7881 132.403 55.0081 133.483 54.4481 134.283C53.4581 135.523 52.3481 136.853 51.1881 137.933L50.8181 137.723V137.733Z" fill="#010101"/>
<path d="M324.938 124.792C329.148 119.482 330.158 113.732 330.158 113.732C330.158 113.732 331.688 104.242 310.768 97.2424C305.098 95.3524 297.778 93.6424 288.328 92.3524C269.478 89.7724 251.268 91.2824 236.558 93.8624C226.418 95.6424 217.948 97.9424 212.088 99.7624C206.478 101.502 203.258 102.802 203.258 102.802C203.258 102.802 156.688 133.692 127.228 139.992C110.438 143.582 100.128 139.492 94.3682 135.312C120.108 119.112 152.988 97.0724 178.348 88.9024C221.128 75.1224 268.178 71.3224 289.558 78.9224C290.058 79.1024 290.558 79.2724 291.058 79.4524C298.598 82.1524 306.828 85.1924 314.548 88.4224C352.018 104.082 341.288 118.412 324.938 124.792Z" stroke="#231F20" stroke-width="4"/>
<path d="M72.9881 219.663C71.8581 211.963 73.1981 197.393 84.2881 199.473C91.4481 200.813 97.8981 206.713 98.2581 214.283L98.2881 215.143C97.0981 216.283 95.8781 217.853 95.3681 219.443C95.0081 220.703 95.1381 221.663 95.9481 222.653C97.7481 225.213 101.098 226.533 102.818 229.383C103.618 230.653 102.938 232.913 102.808 234.293C100.978 232.943 98.8881 230.963 97.3581 229.613C93.7181 226.323 89.4481 227.023 85.6281 229.663C87.7381 227.303 90.7381 225.373 94.1281 225.793C97.3581 226.083 100.168 228.523 102.548 230.193L100.158 231.243C100.068 230.843 99.8381 230.673 99.4381 230.323C97.3081 228.733 94.8081 227.403 92.9381 225.163C89.4781 221.503 91.5181 215.993 94.6481 212.853L94.0281 214.383C93.9881 213.793 93.8081 212.883 93.6081 212.253C92.3181 207.523 88.0181 204.313 83.4381 203.023C75.6281 200.713 73.8181 214.013 72.9681 219.693L72.9881 219.663Z" fill="#010101"/>
<path d="M286.028 228.363C284.958 229.893 283.948 230.953 283.028 231.683L284.018 219.323C286.468 220.923 289.138 223.913 286.028 228.363Z" stroke="#010101" stroke-width="4.95" stroke-linecap="round" stroke-linejoin="bevel"/>
<path d="M289.108 246.033C286.118 251.293 283.678 251.653 281.808 250.143C281.768 249.523 281.728 248.943 281.678 248.403L283.028 231.683C283.948 230.953 284.958 229.893 286.028 228.363C289.138 223.913 286.468 220.923 284.018 219.323L285.338 202.963C289.388 198.893 294.348 197.073 298.608 204.783C307.638 221.123 296.708 232.633 289.108 246.033Z" stroke="#010101" stroke-width="4.95" stroke-linecap="round" stroke-linejoin="bevel"/>
<path d="M294.098 226.222C293.568 220.352 294.198 214.742 291.008 209.502C297.648 211.732 297.968 221.362 294.098 226.222Z" fill="#010101"/>
<path d="M135.918 197.702C142.898 216.422 156.788 218.852 174.788 216.812C179.968 216.052 185.808 214.922 189.358 210.742C185.268 219.562 171.258 221.182 162.618 221.272C155.268 221.282 147.568 218.892 142.548 213.292C138.638 209.122 136.168 203.382 135.918 197.692V197.702Z" fill="#010101"/>
<path d="M231.128 208.013C236.918 212.093 243.368 214.203 250.378 214.033C256.808 213.763 263.818 213.473 269.168 209.613C272.628 207.163 275.288 203.313 277.418 198.823C277.748 204.053 275.968 209.263 272.298 213.133C268.118 217.633 261.868 219.333 255.918 219.693C246.268 220.593 235.618 217.153 231.128 208.003V208.013Z" fill="#010101"/>
<path d="M231.128 183.772C231.128 183.772 230.268 187.122 229.338 191.782" stroke="#010101" stroke-width="4.95" stroke-linecap="round" stroke-linejoin="bevel"/>
<path d="M261.958 199.033C261.958 204.813 255.808 209.503 248.238 209.503C241.768 209.503 236.338 206.083 234.888 201.493C234.638 200.703 234.508 199.883 234.508 199.033C234.508 198.033 234.688 197.063 235.038 196.153C235.068 196.053 235.108 195.963 235.148 195.873L236.288 195.953H236.338C236.498 195.953 236.658 195.963 236.818 195.983L261.848 197.733C261.918 198.153 261.958 198.593 261.958 199.033Z" fill="black" stroke="black" stroke-linecap="round" stroke-linejoin="bevel"/>
<path d="M239.768 198.852C239.768 200.452 238.208 201.742 236.288 201.742C235.798 201.742 235.318 201.652 234.888 201.492C233.668 201.052 232.818 200.032 232.818 198.852C232.818 197.672 233.738 196.572 235.038 196.152C235.428 196.022 235.848 195.952 236.288 195.952H236.338C236.498 195.952 236.658 195.962 236.818 195.982C238.488 196.202 239.768 197.402 239.768 198.852Z" fill="white" stroke="#010101" stroke-width="1.83" stroke-linejoin="bevel"/>
<path d="M175.698 198.852C175.698 204.632 169.558 209.312 161.978 209.312C155.508 209.312 150.098 205.902 148.648 201.322C148.388 200.522 148.258 199.702 148.258 198.852C148.258 198.002 148.388 197.192 148.638 196.402C149.678 196.342 150.758 196.283 151.918 196.233H151.928C158.028 195.973 165.788 195.912 175.298 196.322C175.558 197.132 175.698 197.982 175.698 198.852Z" fill="black" stroke="black" stroke-linecap="round" stroke-linejoin="bevel"/>
<path d="M153.508 198.662C153.508 200.262 151.958 201.562 150.038 201.562C149.538 201.562 149.068 201.472 148.648 201.322C147.418 200.872 146.558 199.852 146.558 198.662C146.558 197.782 147.038 196.992 147.788 196.452C148.068 196.432 148.348 196.422 148.638 196.402C149.678 196.342 150.758 196.282 151.918 196.232H151.928C152.878 196.752 153.508 197.642 153.508 198.662Z" fill="white" stroke="#010101" stroke-width="1.83" stroke-linejoin="bevel"/>
<path d="M109.408 216.912C108.508 218.982 107.068 220.632 105.128 221.802C106.028 219.722 107.468 218.092 109.408 216.912Z" fill="#010101"/>
<path d="M110.958 219.312C109.118 222.292 106.378 224.542 105.128 227.822C104.828 224.482 108.358 221.012 110.958 219.312Z" fill="#010101"/>
<path d="M110.958 222.662C111.068 224.112 110.548 225.332 109.398 226.222C109.278 224.772 109.818 223.562 110.958 222.662Z" fill="#010101"/>
<path d="M108.048 229.792C107.978 231.352 107.298 232.632 106.018 233.532C106.078 231.972 106.778 230.702 108.048 229.792Z" fill="#010101"/>
<path d="M110.188 230.502C110.488 232.722 109.748 236.552 107.268 237.212C108.878 235.262 108.988 232.742 110.188 230.502Z" fill="#010101"/>
<path d="M113.508 228.722C113.658 229.992 113.168 231.012 112.078 231.692C111.928 230.422 112.418 229.402 113.508 228.722Z" fill="#010101"/>
<path d="M117.068 232.462C117.018 234.302 116.138 235.692 115.288 237.212C115.048 236.772 115.118 236.272 115.178 235.842C115.438 234.532 116.018 233.362 117.068 232.452V232.462Z" fill="#010101"/>
<path d="M117.958 243.902C117.638 241.992 117.998 240.172 119.028 238.522C119.348 240.442 118.988 242.252 117.958 243.902Z" fill="#010101"/>
<path d="M122.768 238.522C122.938 240.062 122.458 241.402 121.338 242.472C121.158 240.932 121.648 239.592 122.768 238.522Z" fill="#010101"/>
<path d="M116.168 241.042C116.158 242.402 115.748 243.572 115.418 244.802C115.328 245.202 115.208 245.562 115.268 246.032C114.828 245.772 114.668 245.202 114.638 244.742C114.578 243.342 115.118 241.992 116.168 241.042Z" fill="#010101"/>
<path d="M112.788 236.022C113.418 237.612 112.768 240.032 110.958 240.492C111.788 238.902 111.938 237.612 112.788 236.022Z" fill="#010101"/>
<path d="M115.598 249.212C115.538 251.112 114.838 252.772 113.508 254.132C113.568 252.232 114.278 250.572 115.598 249.212Z" fill="#010101"/>
<path d="M122.058 246.902C122.498 248.582 122.258 250.202 121.348 251.682C120.898 250.002 121.148 248.382 122.058 246.902Z" fill="#010101"/>
<path d="M119.028 246.032C119.328 247.312 118.968 248.432 117.958 249.282C117.658 248.002 118.028 246.892 119.028 246.032Z" fill="#010101"/>
<path d="M126.928 250.922C126.908 253.172 126.228 255.232 124.908 257.052C124.928 254.802 125.608 252.742 126.928 250.922Z" fill="#010101"/>
<path d="M121.348 255.272C121.258 257.252 120.318 258.752 119.918 260.622C119.568 260.222 119.508 259.642 119.528 259.162C119.628 257.682 120.238 256.302 121.348 255.282V255.272Z" fill="#010101"/>
<path d="M117.958 255.272C117.928 256.422 117.618 257.312 117.338 258.322L117.058 259.372C115.978 258.162 116.658 256.072 117.948 255.272H117.958Z" fill="#010101"/>
<path d="M122.768 261.512C122.138 262.792 121.238 263.742 120.428 264.812C120.178 265.162 119.928 265.472 119.828 265.972C119.498 265.552 119.568 264.922 119.728 264.472C120.248 263.092 121.368 262.012 122.768 261.522V261.512Z" fill="#010101"/>
<path d="M126.928 259.372C127.208 261.152 125.848 265.382 123.478 264.362C124.078 264.302 124.388 263.942 124.668 263.572C125.538 262.242 126.018 260.722 126.918 259.372H126.928Z" fill="#010101"/>
<path d="M131.148 251.672C131.468 253.672 131.108 255.572 130.078 257.322C129.758 255.322 130.118 253.422 131.148 251.672Z" fill="#010101"/>
<path d="M137.738 251.672C137.138 253.352 136.168 254.842 135.318 256.352C135.068 256.862 134.778 257.332 134.708 257.942C134.358 257.382 134.448 256.662 134.588 256.062C135.108 254.292 136.208 252.732 137.728 251.662L137.738 251.672Z" fill="#010101"/>
<path d="M140.238 257.052C139.978 258.622 139.128 259.832 137.748 260.612C138.008 259.042 138.858 257.832 140.238 257.052Z" fill="#010101"/>
<path d="M144.518 259.372C143.958 260.792 143.138 261.832 142.478 263.112C142.298 263.512 142.118 263.892 142.198 264.412C140.648 262.912 142.968 260.022 144.518 259.372Z" fill="#010101"/>
<path d="M149.148 263.512C147.948 264.352 147.198 264.702 146.558 265.962C145.598 264.442 147.688 262.732 149.148 263.512Z" fill="#010101"/>
<path d="M157.348 263.742C156.998 264.932 155.978 265.862 154.768 266.142C154.358 266.222 153.878 266.222 153.508 265.972C153.908 265.792 154.188 265.602 154.478 265.412C155.408 264.792 156.208 264.152 157.338 263.742H157.348Z" fill="#010101"/>
<path d="M158.508 268.992C157.658 270.132 156.738 270.522 155.428 270.982C155.658 269.612 157.168 268.812 158.508 268.992Z" fill="#010101"/>
<path d="M159.988 273.182C159.358 274.142 158.448 274.492 157.338 274.172C157.958 273.202 158.878 272.872 159.988 273.182Z" fill="#010101"/>
<path d="M162.638 276.662C161.538 277.832 160.108 278.532 158.548 278.752C158.038 278.802 157.408 278.812 156.968 278.452C158.938 277.972 160.528 276.832 162.648 276.672L162.638 276.662Z" fill="#010101"/>
<path d="M166.968 275.372C167.238 273.892 169.218 272.712 170.528 273.672C169.178 274.202 168.378 274.842 166.968 275.372Z" fill="#010101"/>
<path d="M175.698 270.982C175.338 269.632 175.958 267.492 177.478 267.242C176.898 268.582 176.758 269.832 175.698 270.982Z" fill="#010101"/>
<path d="M173.028 265.962C173.358 267.122 172.988 268.372 171.998 269.032C171.828 269.122 171.538 269.182 171.428 268.992C171.618 268.932 171.608 268.802 171.648 268.682C171.908 267.652 172.168 266.752 173.028 265.962Z" fill="#010101"/>
<path d="M173.028 261.892C173.698 260.122 174.898 258.792 176.588 257.942C175.918 259.712 174.708 261.042 173.028 261.892Z" fill="#010101"/>
<path d="M181.468 255.272C182.588 254.422 183.768 254.082 185.028 253.682C185.418 253.522 185.828 253.512 186.108 253.142C186.248 254.782 182.768 255.622 181.478 255.282L181.468 255.272Z" fill="#010101"/>
<path d="M185.148 257.052C184.648 258.202 183.738 258.822 182.478 258.832C182.978 257.672 183.898 257.062 185.148 257.052Z" fill="#010101"/>
<path d="M179.628 259.922C179.988 261.122 178.908 263.312 177.488 262.762C178.408 261.862 178.508 260.772 179.628 259.922Z" fill="#010101"/>
<path d="M183.808 261.512C183.978 262.932 183.018 264.762 181.458 264.742C182.238 263.552 182.618 262.452 183.808 261.512Z" fill="#010101"/>
<path d="M186.868 261.892C187.378 260.872 188.228 260.422 189.358 260.622C188.858 261.652 187.988 262.082 186.868 261.892Z" fill="#010101"/>
<path d="M189.358 255.272C189.868 256.732 188.718 259.622 186.868 258.832C188.298 258.042 188.308 256.512 189.358 255.272Z" fill="#010101"/>
<path d="M190.728 253.132C191.468 251.872 192.558 251.012 193.828 250.402C194.248 250.232 194.718 250.012 195.238 250.102C193.918 251.412 192.598 252.632 190.728 253.132Z" fill="#010101"/>
<path d="M198.918 250.102C198.728 248.682 200.278 246.972 201.718 247.662C200.578 248.452 200.108 249.292 198.918 250.102Z" fill="#010101"/>
<path d="M205.468 247.662C205.598 246.422 206.348 245.392 207.428 244.842C207.788 244.672 208.278 244.552 208.678 244.762C208.318 244.982 208.118 245.232 207.878 245.482C207.138 246.282 206.498 247.072 205.468 247.662Z" fill="#010101"/>
<path d="M212.758 246.902C211.478 247.652 210.458 247.812 210.098 249.292C208.778 247.632 211.258 245.992 212.758 246.902Z" fill="#010101"/>
<path d="M205.468 250.922C205.368 252.212 203.938 253.722 202.618 253.132C203.618 252.302 204.158 251.412 205.468 250.922Z" fill="#010101"/>
<path d="M200.318 252.032C200.148 253.092 199.908 253.692 198.918 254.212C198.578 253.202 199.248 252.042 200.318 252.032Z" fill="#010101"/>
<path d="M196.198 253.992C195.918 255.202 195.178 256.112 194.178 256.752C193.848 256.942 193.428 257.152 192.988 257.062C193.928 255.842 194.688 254.652 196.198 253.992Z" fill="#010101"/>
<path d="M195.248 257.942C196.488 258.352 195.868 260.452 194.598 259.912C194.988 259.072 194.898 258.932 195.248 257.942Z" fill="#010101"/>
<path d="M198.918 259.372C198.148 258.432 199.168 256.982 200.318 257.052C200.128 258.062 199.548 258.602 198.918 259.372Z" fill="#010101"/>
<path d="M207.068 254.202C206.438 255.772 205.248 256.792 204.008 257.812C203.918 257.892 203.908 257.902 204.038 257.942C203.858 258.082 203.718 257.902 203.748 257.722C204.128 256.072 205.518 254.832 207.068 254.192V254.202Z" fill="#010101"/>
<path d="M211.398 255.522C210.938 254.462 211.618 253.272 212.758 253.132C212.618 254.282 212.308 254.812 211.398 255.522Z" fill="#010101"/>
<path d="M215.268 250.102C215.328 248.892 215.968 248.042 217.118 247.662C217.058 248.882 216.428 249.712 215.268 250.102Z" fill="#010101"/>
<path d="M220.258 250.102C220.358 251.682 220.258 252.802 220.258 254.322C218.908 253.362 219.008 251.102 220.258 250.102Z" fill="#010101"/>
<path d="M222.748 250.102C223.188 251.692 223.148 253.172 223.318 254.732C223.398 255.212 223.398 255.692 223.818 256.082C221.738 255.712 221.988 251.562 222.748 250.112V250.102Z" fill="#010101"/>
<path d="M229.338 250.102C228.148 249.952 227.378 249.262 227.098 248.092C228.288 248.242 229.058 248.942 229.338 250.102Z" fill="#010101"/>
<path d="M231.128 248.092C232.558 248.512 233.208 250.312 232.748 251.672C231.828 250.582 231.528 249.472 231.128 248.092Z" fill="#010101"/>
<path d="M238.438 248.882C237.278 248.122 236.788 247.312 236.298 246.032C237.678 246.212 238.548 247.532 238.438 248.882Z" fill="#010101"/>
<path d="M240.578 248.092C241.418 247.992 242.178 248.342 242.788 248.832C243.388 249.342 243.868 250.082 243.848 250.922C243.488 250.692 243.228 250.462 242.948 250.242C242.108 249.552 241.348 248.982 240.588 248.092H240.578Z" fill="#010101"/>
<path d="M240.578 254.812C240.208 253.912 240.168 253.282 239.998 252.462C239.938 252.222 239.878 251.972 239.778 251.622C240.128 251.632 240.458 251.822 240.688 252.082C241.328 252.862 241.318 254.092 240.588 254.812H240.578Z" fill="#010101"/>
<path d="M238.438 253.212C237.998 253.692 237.238 253.512 236.808 253.142C236.378 252.752 236.148 252.212 236.298 251.612C236.798 251.822 237.088 252.092 237.458 252.382C237.788 252.672 238.028 252.932 238.438 253.212Z" fill="#010101"/>
<path d="M234.578 256.082C235.668 256.352 236.268 257.092 236.298 258.222C235.198 257.952 234.608 257.212 234.578 256.082Z" fill="#010101"/>
<path d="M231.938 256.082C231.678 254.862 231.408 254.362 231.128 253.232C232.498 253.262 233.168 255.372 231.938 256.082Z" fill="#010101"/>
<path d="M228.158 252.212C227.968 252.502 227.588 252.792 227.748 252.992C227.848 253.332 228.138 253.732 228.228 254.202C227.568 254.202 227.048 253.942 226.788 253.272C226.518 252.462 227.468 251.802 228.168 252.222L228.158 252.212Z" fill="#010101"/>
<path d="M242.048 259.922C240.798 258.862 240.128 257.672 239.768 256.082C241.218 256.822 242.058 258.302 242.048 259.922Z" fill="#010101"/>
<path d="M244.848 259.922C244.908 260.912 245.088 261.202 245.408 261.952C245.518 262.182 245.638 262.432 245.738 262.762C245.048 262.762 244.478 262.322 244.218 261.692C243.968 261.062 244.158 260.172 244.848 259.922Z" fill="#010101"/>
<path d="M246.458 258.212C245.438 258.302 244.488 257.502 244.328 256.512C244.278 256.172 244.348 255.802 244.568 255.522C244.768 255.822 244.908 256.042 245.058 256.242C245.568 256.912 246.018 257.352 246.458 258.222V258.212Z" fill="#010101"/>
<path d="M246.458 252.032C248.048 251.702 249.948 252.552 250.378 254.212C248.928 253.552 247.728 253.082 246.458 252.032Z" fill="#010101"/>
<path d="M254.278 257.142C255.488 257.162 256.458 258.142 256.558 259.372C255.348 258.992 254.728 258.312 254.278 257.142Z" fill="#010101"/>
<path d="M254.278 264.412C252.988 263.832 252.348 263.092 251.628 261.892C253.048 261.872 254.148 263.042 254.278 264.412Z" fill="#010101"/>
<path d="M250.378 259.372C249.328 259.682 248.208 259.312 247.578 258.432C247.358 258.132 247.258 257.612 247.528 257.322C247.708 257.662 247.928 257.762 248.148 257.892C248.948 258.332 249.668 258.622 250.378 259.362V259.372Z" fill="#010101"/>
<path d="M248.948 261.892C249.738 263.302 249.718 264.562 250.378 265.962C248.688 265.622 248.278 263.252 248.948 261.892Z" fill="#010101"/>
<path d="M252.948 269.122C253.258 270.442 252.928 271.552 252.758 272.792C252.748 272.942 252.748 273.052 252.948 273.192C252.768 273.322 252.438 273.192 252.308 272.992C251.608 271.752 252.038 270.182 252.948 269.132V269.122Z" fill="#010101"/>
<path d="M256.558 271.152C255.868 270.182 255.418 269.462 255.418 268.282C256.578 268.642 257.288 270.142 256.558 271.152Z" fill="#010101"/>
<path d="M258.398 265.962C257.468 264.962 257.168 264.342 256.568 263.122C257.968 263.082 258.918 264.712 258.398 265.962Z" fill="#010101"/>
<path d="M262.848 268.282C264.108 268.542 265.188 269.692 264.988 270.982C263.898 270.242 263.188 269.592 262.848 268.282Z" fill="#010101"/>
<path d="M267.668 269.992C266.648 269.902 266.088 269.312 266.068 268.282C267.088 268.362 267.648 268.962 267.668 269.992Z" fill="#010101"/>
<path d="M269.978 265.972C268.688 265.472 267.888 264.492 267.658 263.122C268.958 263.632 269.738 264.602 269.978 265.972Z" fill="#010101"/>
<path d="M271.408 259.372C272.878 260.742 273.838 262.862 273.368 264.852C272.438 263.022 271.668 261.422 271.408 259.372Z" fill="#010101"/>
<path d="M277.418 257.322C276.758 256.322 276.538 255.312 276.238 254.242C276.138 253.902 276.078 253.582 275.848 253.222C276.298 253.222 276.678 253.552 276.928 253.872C277.638 254.872 277.848 256.132 277.408 257.312L277.418 257.322Z" fill="#010101"/>
<path d="M278.178 249.212C279.288 250.332 279.648 251.622 279.958 253.092C278.538 252.452 277.948 250.712 278.178 249.212Z" fill="#010101"/>
<path d="M275.858 261.512C276.698 262.762 276.878 264.082 277.168 265.472C277.218 265.652 277.238 265.832 277.418 265.972C277.178 266.062 276.928 265.882 276.758 265.742C275.728 264.622 275.468 262.992 275.858 261.522V261.512Z" fill="#010101"/>
<path d="M273.368 267.492C273.968 268.602 274.558 268.952 275.148 269.992C273.848 270.332 272.398 268.602 273.368 267.492Z" fill="#010101"/>
<path d="M271.408 269.992C271.348 270.782 271.198 271.442 271.278 271.902C271.368 272.492 271.898 272.742 272.388 273.172C270.118 273.872 269.548 270.922 271.408 269.982V269.992Z" fill="#010101"/>
<path d="M269.978 275.942C268.708 275.392 268.038 274.492 267.658 273.172C268.958 273.462 269.848 274.602 269.978 275.942Z" fill="#010101"/>
<path d="M259.818 273.182C261.248 273.242 262.978 274.412 262.848 275.952C261.708 275.052 260.598 274.512 259.818 273.182Z" fill="#010101"/>
<path d="M263.918 276.662C265.348 277.042 266.348 277.942 266.858 279.332C265.428 278.962 264.428 278.042 263.918 276.662Z" fill="#010101"/>
<path d="M255.418 276.662C256.648 276.512 258.198 277.252 258.398 278.522C257.178 278.192 256.138 277.812 255.418 276.662Z" fill="#010101"/>
<path d="M259.818 279.332C261.638 280.062 263.028 281.322 263.918 283.072C262.098 282.342 260.718 281.072 259.818 279.332Z" fill="#010101"/>
<path d="M259.818 285.752C258.348 284.652 257.438 283.202 256.478 281.712C256.338 281.522 256.228 281.282 255.988 281.202C256.268 281.052 256.578 281.232 256.808 281.342C258.358 282.332 259.398 283.942 259.818 285.742V285.752Z" fill="#010101"/>
<path d="M249.658 283.072C250.978 283.092 251.878 283.732 252.688 284.672C251.448 285.022 250.188 284.232 249.658 283.072Z" fill="#010101"/>
<path d="M255.418 285.752C256.758 285.752 257.758 286.352 258.398 287.532C257.068 287.542 256.038 286.922 255.418 285.752Z" fill="#010101"/>
<path d="M254.278 290.912C252.718 289.892 252.068 288.232 250.378 287.522C252.198 286.652 254.108 289.272 254.278 290.912Z" fill="#010101"/>
<path d="M243.838 290.022C244.648 289.202 246.478 289.652 246.448 290.912C245.408 290.652 244.788 290.692 243.838 290.022Z" fill="#010101"/>
<path d="M248.238 293.232C248.068 292.592 248.698 292.042 249.328 292.112C249.938 292.192 250.348 292.632 250.378 293.232C250.078 293.232 249.858 293.192 249.668 293.152C249.038 293.102 249.098 292.982 248.238 293.232Z" fill="#010101"/>
<path d="M243.838 295.372C244.728 296.112 245.198 296.952 245.778 297.832C245.968 298.102 246.118 298.372 246.448 298.622C246.048 298.792 245.578 298.622 245.248 298.412C244.278 297.732 243.728 296.592 243.838 295.382V295.372Z" fill="#010101"/>
<path d="M243.838 301.792C242.908 301.942 242.308 301.482 242.208 300.542C243.138 300.392 243.738 300.852 243.838 301.792Z" fill="#010101"/>
<path d="M240.228 296.992C238.558 296.742 237.228 295.892 236.298 294.482C237.968 294.732 239.298 295.592 240.228 296.992Z" fill="#010101"/>
<path d="M232.818 296.992C234.478 298.082 235.998 299.872 235.988 301.942C235.958 302.262 235.748 302.632 235.428 302.682C235.608 302.432 235.578 302.202 235.498 301.972C234.728 300.232 233.468 298.872 232.818 297.002V296.992Z" fill="#010101"/>
<path d="M236.898 301.792C238.578 302.592 239.568 303.832 240.918 305.002C239.048 305.142 237.478 303.462 236.898 301.792Z" fill="#010101"/>
<path d="M238.258 307.492C237.178 307.542 236.278 306.762 236.298 305.712C237.368 305.932 237.978 306.412 238.258 307.492Z" fill="#010101"/>
<path d="M232.138 304.992C233.408 306.472 233.688 308.232 234.288 309.982C233.768 309.852 233.448 309.392 233.188 309.022C232.428 307.812 232.018 306.462 232.148 304.992H232.138Z" fill="#010101"/>
<path d="M229.338 295.372C228.378 294.202 227.818 292.872 227.158 291.582C226.918 291.182 226.748 290.782 226.318 290.462C226.878 290.362 227.418 290.752 227.788 291.112C228.848 292.262 229.418 293.792 229.348 295.372H229.338Z" fill="#010101"/>
<path d="M221.858 290.462C220.448 290.222 218.948 289.032 219.008 287.532C220.188 288.372 221.238 289.062 221.858 290.462Z" fill="#010101"/>
<path d="M221.858 296.992C222.518 297.372 222.928 297.712 222.668 298.612C221.798 298.612 221.218 297.572 221.858 296.992Z" fill="#010101"/>
<path d="M225.428 298.622C226.108 299.452 226.118 300.342 225.428 301.172C224.738 300.342 224.748 299.452 225.428 298.622Z" fill="#010101"/>
<path d="M228.228 299.832C229.258 300.222 229.898 301.312 229.828 302.392C229.788 302.762 229.648 303.142 229.348 303.392C229.238 303.022 229.148 302.752 229.048 302.472C228.718 301.592 228.368 300.882 228.228 299.832Z" fill="#010101"/>
<path d="M228.838 307.492C229.298 309.372 228.818 311.032 229.348 312.842C227.578 311.892 227.888 308.972 228.838 307.492Z" fill="#010101"/>
<path d="M225.428 311.592C224.018 309.992 222.988 307.882 223.198 305.722C223.258 305.422 223.458 304.962 223.828 304.992C223.408 305.412 223.828 306.042 223.938 306.522C224.518 308.152 225.208 309.812 225.438 311.582L225.428 311.592Z" fill="#010101"/>
<path d="M220.438 301.792C221.118 303.682 221.128 305.602 220.438 307.492C219.748 305.602 219.758 303.682 220.438 301.792Z" fill="#010101"/>
<path d="M216.188 297.802C216.368 298.892 216.308 299.742 216.278 300.742C216.258 301.062 216.258 301.392 216.188 301.792C215.558 301.322 215.298 300.532 215.308 299.792C215.338 299.062 215.568 298.312 216.188 297.802Z" fill="#010101"/>
<path d="M213.818 292.602C213.018 293.862 212.328 294.642 211.398 295.742C210.928 294.242 212.298 292.592 213.818 292.602Z" fill="#010101"/>
<path d="M207.958 294.172C207.698 295.762 206.858 297.002 205.468 297.812C205.728 296.222 206.578 294.992 207.958 294.172Z" fill="#010101"/>
<path d="M211.398 300.542C212.078 301.892 212.088 303.292 211.398 304.642C210.708 303.292 210.718 301.892 211.398 300.542Z" fill="#010101"/>
<path d="M215.998 306.602C216.178 308.422 215.598 309.882 216.188 311.592C214.318 310.732 214.778 307.852 215.998 306.602Z" fill="#010101"/>
<path d="M208.668 311.052C207.988 310.152 207.978 309.192 208.668 308.292C209.358 309.192 209.348 310.152 208.668 311.052Z" fill="#010101"/>
<path d="M207.128 301.612C207.588 303.362 207.138 304.932 206.708 306.602C206.368 306.242 206.298 305.752 206.248 305.332C206.138 304.022 206.368 302.752 207.128 301.612Z" fill="#010101"/>
<path d="M200.318 307.492C200.838 308.362 200.538 309.252 199.618 309.672C199.268 308.712 199.498 308.082 200.318 307.492Z" fill="#010101"/>
<path d="M199.618 303.392C200.178 301.552 201.138 299.932 202.228 298.372L202.158 298.612V298.492C202.158 298.492 202.118 298.382 202.218 298.532C202.288 298.592 202.348 298.642 202.468 298.662C202.668 298.662 202.658 298.622 202.708 298.612C202.808 298.532 202.768 298.552 202.768 298.552C202.388 299.142 202.128 299.902 201.728 300.532C201.728 299.692 201.738 298.862 202.088 298.082C202.128 298.032 202.108 298.002 202.258 297.892C202.368 297.772 202.768 297.782 202.888 297.992C203.088 298.342 203.018 298.322 203.068 298.612C203.088 298.732 203.048 298.752 202.998 298.852C202.078 300.512 201.028 302.082 199.618 303.382V303.392Z" fill="#010101"/>
<path d="M205.468 308.582C204.658 309.572 204.128 309.822 204.038 311.052C202.478 310.152 203.968 308.012 205.468 308.582Z" fill="#010101"/>
<path d="M195.458 308.292C195.408 306.892 195.978 305.762 197.148 304.992C197.208 306.392 196.618 307.512 195.458 308.292Z" fill="#010101"/>
<path d="M195.458 299.802C196.068 297.912 197.228 296.422 198.918 295.382C198.318 297.272 197.138 298.762 195.458 299.802Z" fill="#010101"/>
<path d="M191.568 294.172C190.198 294.462 188.998 294.272 187.758 294.612C187.418 294.722 187.118 294.922 186.878 295.382C186.408 292.982 190.308 293.092 191.568 294.182V294.172Z" fill="#010101"/>
<path d="M188.118 299.802C187.958 298.442 189.388 297.042 190.738 297.592C189.928 298.332 189.148 299.222 188.118 299.802Z" fill="#010101"/>
<path d="M188.118 302.682C187.578 304.382 186.438 305.512 185.148 306.652C185.198 304.892 186.568 303.442 188.118 302.682Z" fill="#010101"/>
<path d="M191.568 304.992C192.528 305.332 192.648 306.722 191.768 307.272C191.028 307.742 190.218 307.792 189.438 307.482C189.768 307.222 190.098 307.072 190.398 306.912C190.878 306.632 191.408 306.482 191.598 305.972C191.668 305.742 191.648 305.392 191.578 304.982L191.568 304.992Z" fill="#010101"/>
<path d="M179.628 301.162C181.158 299.702 183.048 298.822 185.148 298.612C183.578 300.092 181.758 300.932 179.628 301.162Z" fill="#010101"/>
<path d="M183.808 293.232C183.358 294.242 182.548 294.682 181.458 294.482C181.898 293.472 182.718 293.042 183.808 293.232Z" fill="#010101"/>
<path d="M183.808 289.212C182.678 290.412 181.268 290.992 179.618 290.922C180.738 289.722 182.168 289.142 183.808 289.212Z" fill="#010101"/>
<path d="M176.598 285.752C175.388 286.342 174.258 286.452 173.078 286.832C172.748 286.972 172.428 287.082 172.228 287.532C171.618 285.562 175.338 285.032 176.598 285.752Z" fill="#010101"/>
<path d="M170.538 282.182C171.448 280.572 173.028 279.202 174.908 279.042C175.188 279.032 175.518 279.122 175.698 279.332C175.158 279.332 174.818 279.652 174.398 279.892C173.168 280.722 171.978 281.632 170.528 282.182H170.538Z" fill="#010101"/>
<path d="M179.628 295.372C178.288 296.602 175.958 297.112 174.418 295.992C176.008 295.762 177.988 295.272 179.628 295.372Z" fill="#010101"/>
<path d="M176.598 298.242C175.718 299.602 173.778 300.692 172.228 299.892C173.738 299.262 174.898 298.442 176.598 298.242Z" fill="#010101"/>
<path d="M169.348 295.372C168.688 296.682 166.658 297.932 165.308 296.992C166.748 296.462 167.738 295.582 169.348 295.372Z" fill="#010101"/>
<path d="M167.328 292.912C169.028 291.602 170.978 290.922 173.118 290.912C171.418 292.232 169.468 292.892 167.328 292.912Z" fill="#010101"/>
<path d="M168.748 285.752C167.408 286.722 165.898 287.022 164.288 286.642C165.628 285.672 167.138 285.372 168.748 285.752Z" fill="#010101"/>
<path d="M159.988 283.072C161.308 282.362 162.718 282.102 164.108 281.762C164.538 281.622 164.998 281.602 165.308 281.192C165.308 283.062 161.388 283.542 159.988 283.072Z" fill="#010101"/>
<path d="M158.508 281.202C156.778 281.842 154.938 282.032 153.178 282.322C152.678 282.472 151.928 282.432 151.828 283.072C151.588 282.772 151.828 282.332 152.088 282.112C153.908 280.792 156.368 280.722 158.508 281.202Z" fill="#010101"/>
<path d="M147.858 278.522C149.208 277.632 150.718 277.182 152.178 276.652C152.648 276.452 153.118 276.342 153.518 275.952C153.498 276.562 152.978 277.022 152.548 277.342C151.168 278.272 149.528 278.702 147.858 278.532V278.522Z" fill="#010101"/>
<path d="M149.148 271.582C147.988 272.552 146.628 273.082 145.318 273.682C144.988 273.892 144.368 273.992 144.518 274.502C144.198 274.392 144.198 273.942 144.348 273.682C145.398 272.162 147.358 271.552 149.148 271.582Z" fill="#010101"/>
<path d="M140.238 271.582C140.678 270.252 141.768 269.192 143.098 268.752C143.548 268.612 144.058 268.562 144.518 268.742C144.098 268.982 143.768 269.222 143.438 269.462C142.408 270.222 141.478 271.022 140.238 271.592V271.582Z" fill="#010101"/>
<path d="M138.988 268.742C138.198 269.672 137.308 270.122 136.428 270.782C136.198 270.992 135.938 271.132 135.928 271.582C135.508 271.302 135.588 270.662 135.828 270.292C136.518 269.222 137.738 268.672 138.998 268.742H138.988Z" fill="#010101"/>
<path d="M132.398 268.282C133.968 266.772 135.898 266.222 137.408 264.742C137.238 266.912 134.338 268.192 132.398 268.282Z" fill="#010101"/>
<path d="M132.398 263.152C131.378 264.482 130.058 265.202 128.718 266.052C128.548 266.182 128.348 266.272 128.298 266.512C128.108 266.292 128.238 265.962 128.338 265.742C129.178 264.292 130.738 263.392 132.398 263.152Z" fill="#010101"/>
<path d="M126.928 264.412C126.148 265.692 124.978 266.412 123.478 266.512C124.258 265.232 125.428 264.522 126.928 264.412Z" fill="#010101"/>
<path d="M126.928 269.142C125.448 269.852 124.538 270.412 123.478 271.592C123.108 269.792 125.358 268.292 126.928 269.142Z" fill="#010101"/>
<path d="M126.928 274.502C127.928 272.972 129.358 271.982 131.148 271.582C130.138 273.122 128.718 274.092 126.928 274.502Z" fill="#010101"/>
<path d="M137.408 275.942C136.448 277.602 132.438 280.972 130.618 279.232C131.278 279.442 131.818 279.122 132.368 278.862C134.088 277.932 135.568 276.772 137.408 275.942Z" fill="#010101"/>
<path d="M135.918 282.132C137.598 281.422 139.378 280.942 140.728 279.702C142.128 278.612 143.498 276.792 145.408 276.652C143.768 277.582 142.858 279.272 141.378 280.462C139.918 281.762 137.828 282.202 135.918 282.132Z" fill="#010101"/>
<path d="M147.858 282.182C146.238 284.192 143.368 286.362 140.668 285.742C143.278 284.902 145.268 283.152 147.858 282.182Z" fill="#010101"/>
<path d="M146.558 288.422C148.318 287.292 150.118 286.952 151.788 285.752C151.248 287.882 148.528 288.732 146.558 288.422Z" fill="#010101"/>
<path d="M155.148 287.082C157.068 286.102 159.068 286.192 161.088 285.742C160.838 286.272 160.278 286.532 159.798 286.742C158.308 287.322 156.718 287.482 155.148 287.072V287.082Z" fill="#010101"/>
<path d="M153.508 290.912C155.378 290.572 156.868 290.542 158.668 290.062C157.658 291.782 155.058 292.002 153.508 290.912Z" fill="#010101"/>
<path d="M158.668 293.902C160.598 293.062 162.708 293.322 164.298 291.922C164.038 294.222 160.428 294.582 158.668 293.902Z" fill="#010101"/>
<path d="M206.878 275.942C207.478 276.852 207.388 277.742 206.628 278.522C206.028 277.612 206.118 276.722 206.878 275.942Z" fill="#010101"/>
<path d="M211.398 275.942C211.578 277.282 211.118 278.412 210.038 279.232C209.848 277.882 210.318 276.762 211.398 275.942Z" fill="#010101"/>
<path d="M212.758 282.132C212.078 281.692 212.078 281.152 212.758 280.712C213.438 281.152 213.438 281.692 212.758 282.132Z" fill="#010101"/>
<path d="M216.188 276.662C216.618 278.272 216.368 279.812 215.438 281.192C215.008 279.582 215.268 278.042 216.188 276.662Z" fill="#010101"/>
<path d="M219.008 278.522C219.688 279.472 219.698 280.472 219.008 281.422C218.318 280.472 218.328 279.472 219.008 278.522Z" fill="#010101"/>
<path d="M223.438 283.072C222.688 281.162 222.618 279.192 223.238 277.232C223.988 279.142 224.048 281.112 223.438 283.072Z" fill="#010101"/>
<path d="M226.318 277.712C226.998 278.692 227.008 279.732 226.318 280.712C225.628 279.732 225.638 278.692 226.318 277.712Z" fill="#010101"/>
<path d="M230.238 280.152C229.348 279.552 229.098 278.712 229.528 277.722C230.418 278.322 230.668 279.162 230.238 280.152Z" fill="#010101"/>
<path d="M253.648 287.532C258.148 289.742 265.908 293.102 269.688 288.372L272.258 292.582C270.818 293.092 269.588 293.302 268.108 293.342C261.638 293.442 257.828 286.292 260.058 280.672L260.648 280.592C262.168 282.502 263.698 284.952 265.648 286.172C267.228 287.022 268.978 287.722 270.788 287.692L276.298 289.412C273.858 291.502 270.978 294.332 267.588 294.482C261.948 294.902 257.128 291.642 253.278 287.992L253.648 287.522V287.532Z" fill="#010101"/>
<path d="M268.248 272.952C270.888 278.852 276.268 287.132 283.698 284.352L285.628 288.592C281.568 291.582 275.638 292.032 271.218 289.912C267.028 287.952 263.538 284.942 261.338 280.872L261.738 280.422C265.728 281.652 269.448 283.192 273.298 284.232C276.628 285.032 279.928 286.302 283.068 284.642L284.998 288.882C282.688 289.402 280.128 289.352 277.898 288.472C271.708 285.802 268.968 279.222 267.658 273.122L268.238 272.962L268.248 272.952Z" fill="#010101"/>
<path d="M275.378 265.582C277.898 271.342 283.458 279.002 290.528 275.742L296.298 273.332L293.108 278.902C291.098 282.262 287.688 284.582 283.958 285.612C277.468 287.352 270.888 283.862 266.618 279.132C265.748 278.092 264.918 277.042 264.208 275.882L264.578 275.412C265.918 275.762 267.118 276.212 268.298 276.672C274.288 278.602 283.038 282.462 288.398 277.672C288.748 277.382 289.098 276.992 289.378 276.672L291.958 279.832C289.808 280.462 287.408 280.622 285.228 279.932C279.058 277.922 276.148 271.542 274.788 265.762L275.368 265.592L275.378 265.582Z" fill="#010101"/>
<path d="M295.198 236.952C298.238 240.252 303.488 244.852 308.078 243.172C311.118 242.132 314.248 242.912 317.368 242.472L317.958 242.582C318.028 246.052 313.508 248.412 310.618 248.962C308.888 249.262 307.078 248.982 305.398 248.532C300.068 247.012 296.398 242.212 294.678 237.232L295.208 236.952H295.198Z" fill="#010101"/>
<path d="M278.068 247.802C282.118 252.652 288.668 260.132 295.508 259.342C300.388 258.512 303.948 254.902 304.468 249.882C305.248 246.722 303.398 243.752 300.078 243.972L300.528 238.462C302.908 238.932 304.948 240.122 306.298 242.232C307.818 244.722 307.698 247.722 306.768 250.332C305.978 252.272 305.108 254.422 303.388 255.752C297.328 259.262 293.378 250.632 291.418 246.242C290.208 243.302 289.218 240.322 288.598 237.212L289.148 236.972C292.218 240.802 296.488 247.602 300.278 250.552C300.668 250.852 301.118 250.872 300.678 250.762C300.598 250.772 300.408 250.732 300.258 250.792C300.068 250.842 299.878 250.902 299.748 251.032C300.748 248.792 302.598 245.232 299.678 244.022C299.608 243.982 299.428 243.932 299.498 243.932L299.948 238.422C304.668 238.542 308.738 242.142 309.188 246.752C309.338 250.612 308.118 254.362 305.708 257.502C303.268 260.452 299.628 262.012 295.898 262.392C292.188 262.702 288.688 260.642 286.068 258.412C282.618 255.452 279.888 251.922 277.588 248.142L278.088 247.812L278.068 247.802Z" fill="#010101"/>
<path d="M293.258 232.862C297.408 235.722 302.298 238.932 307.498 238.072C310.478 237.382 313.608 236.332 315.748 234.502C317.678 232.892 318.948 230.712 319.688 228.232L323.068 230.902C322.048 231.572 321.188 232.002 320.178 232.432C310.668 236.562 304.228 229.552 303.978 220.302L304.978 222.222C300.588 217.852 296.348 213.252 292.868 208.092L293.258 207.642C299.128 210.552 304.488 214.352 309.648 218.342C310.688 224.452 311.938 230.832 319.608 227.542C320.278 227.292 325.458 224.512 326.198 224.142C324.338 228.832 322.598 234.712 317.978 237.532C315.178 239.392 312.038 240.182 309.058 240.592C305.908 241.192 302.628 240.242 299.938 238.712C297.288 237.242 294.958 235.392 292.848 233.302L293.248 232.852L293.258 232.862Z" fill="#010101"/>
<path d="M286.558 194.372C290.218 199.512 296.458 206.972 303.388 203.742L309.268 200.882L306.378 206.962C302.018 215.452 292.698 217.612 284.508 213.272C283.538 212.672 282.598 212.092 281.728 211.362L281.908 210.792C284.048 210.532 286.088 210.502 288.158 210.312C292.048 209.892 296.058 209.092 299.498 207.222C300.528 206.642 301.488 205.772 302.178 204.852L305.178 208.072C298.288 210.682 291.948 205.592 288.688 199.982C287.618 198.272 286.728 196.492 286.018 194.632L286.558 194.372Z" fill="#010101"/>
<path d="M301.818 183.582C308.478 189.232 323.438 201.822 323.878 210.782L320.948 208.882C322.358 207.852 323.328 206.152 323.728 204.442C325.208 198.082 321.618 191.762 319.068 186.102L319.468 186.712C316.918 183.702 314.048 180.722 311.018 178.172C307.898 175.592 304.578 173.302 300.408 172.872L300.308 172.282C308.858 169.372 318.588 176.752 324.198 182.682L324.438 182.952L324.598 183.292C328.008 190.182 330.398 198.122 328.108 205.792C327.168 208.582 325.398 211.142 322.708 212.552L319.548 214.152L319.778 210.662C319.858 208.472 318.458 205.812 317.298 203.782C314.438 199.002 310.838 194.552 307.148 190.332C305.268 188.202 303.358 186.082 301.378 184.032L301.778 183.582H301.818Z" fill="#010101"/>
<path d="M305.828 183.332C304.888 190.982 304.588 203.292 314.438 204.532C318.468 205.322 323.038 205.642 326.788 204.002C330.598 202.382 331.688 198.552 331.298 194.652L335.378 194.492L335.638 203.572L335.658 204.262L335.228 204.882C330.668 211.102 321.858 223.172 313.098 221.902C312.158 221.792 311.098 221.302 310.218 220.942C298.718 216.682 290.608 210.972 289.208 197.802C288.738 194.312 288.008 184.952 284.398 183.582L284.298 182.992C286.268 182.842 287.508 184.442 288.578 185.772C291.408 189.742 292.498 194.622 293.878 199.202C295.618 204.772 299.198 208.902 304.358 211.542C307.168 213.022 310.558 214.302 313.758 215.792C314.268 216.032 314.818 216.072 315.408 215.972C319.268 215.172 322.598 212.022 325.568 209.172C327.688 207.042 329.718 204.672 331.528 202.312L331.118 203.622L331.278 194.542L335.358 194.382C335.908 203.552 329.608 208.712 320.778 208.132C318.388 208.022 316.068 207.592 313.828 206.982C311.578 206.382 308.988 205.392 307.458 203.442C303.018 197.662 303.908 189.892 305.228 183.232L305.818 183.352L305.828 183.332Z" fill="#010101"/>
<path d="M296.738 148.842C292.678 146.902 288.568 145.392 284.218 144.452C282.308 143.982 280.238 143.522 278.328 143.082C274.248 141.982 270.578 139.032 268.978 135.012L269.398 134.592H269.458L269.428 134.572C272.248 134.802 274.608 135.272 277.178 136.062C279.608 136.742 281.618 138.402 283.878 139.472C288.768 141.572 293.408 144.522 297.088 148.352L296.738 148.842Z" fill="#010101"/>
<path d="M309.428 173.322C307.818 179.982 303.508 185.782 298.098 189.922C297.298 190.532 296.528 191.062 295.558 191.612L294.038 189.232C297.958 185.592 300.598 180.702 300.688 175.362C300.848 169.882 298.558 164.412 294.958 160.252C295.258 156.612 294.928 152.962 293.938 149.462L291.388 140.602C295.228 143.612 301.518 147.542 304.458 151.432C309.328 157.442 311.078 165.852 309.438 173.302L309.428 173.322ZM308.838 173.212C310.288 163.592 302.038 156.312 295.088 151.122L299.908 147.722C301.088 151.562 301.228 155.722 300.578 159.652L300.068 157.702C301.778 160.362 303.108 163.232 303.978 166.262C306.878 175.542 303.688 185.652 295.868 191.412L294.348 189.032C300.878 185.982 307.618 180.772 308.858 173.202L308.838 173.212Z" fill="#010101"/>
<path d="M289.318 151.782C284.858 149.882 280.448 148.132 275.908 146.462C273.688 145.632 271.228 145.322 269.228 143.942C267.078 142.512 265.208 140.932 263.718 138.642L263.938 138.082C265.388 137.732 266.708 137.722 267.998 137.802C270.508 138.022 272.948 138.602 275.018 140.042C277.018 141.502 279.088 142.822 281.138 144.202C284.148 146.342 287.028 148.692 289.658 151.282L289.318 151.772V151.782Z" fill="#010101"/>
<path d="M295.158 190.542C295.448 190.832 296.778 192.172 297.038 192.432C296.488 191.892 293.808 189.202 292.818 188.212C292.688 188.082 292.708 188.092 292.838 188.232C293.378 188.772 294.618 189.992 295.158 190.542Z" fill="#010101"/>
<path d="M331.118 179.822C323.038 182.622 314.438 178.942 308.298 173.582C309.128 168.832 307.738 164.002 305.358 159.922C303.028 155.932 299.678 152.632 295.878 150.012L295.418 149.692L295.228 149.092C294.198 145.812 292.438 142.782 290.308 140.072C290.998 138.362 292.958 133.472 293.648 131.772C301.718 132.342 309.658 135.232 315.718 140.712C317.928 148.702 323.188 162.012 331.688 164.512C333.188 164.892 335.418 165.212 336.728 164.602C338.138 163.552 337.638 161.082 337.268 159.172L335.488 151.852L340.608 156.422C342.078 157.572 343.288 158.982 344.058 160.692C347.748 169.822 339.048 177.442 331.108 179.832L331.118 179.822ZM330.918 179.252C335.158 177.622 339.338 174.742 341.118 170.492C342.868 166.772 341.828 162.042 338.168 160.242L341.518 157.492C342.838 160.562 343.538 164.062 341.848 167.232C339.458 171.282 334.268 171.362 330.318 170.482C322.628 168.812 317.778 161.382 314.948 154.892C313.228 150.892 311.948 146.952 310.988 142.672L311.688 143.922C307.118 139.642 300.988 136.932 294.788 136.082L296.928 134.822L294.348 140.532L294.138 138.622C296.108 141.492 297.668 144.692 298.588 148.092L297.938 147.172C303.998 151.702 309.018 158.182 310.188 165.812C310.588 168.332 310.498 170.942 309.898 173.392L309.668 172.672C314.988 178.332 323.268 182.162 330.928 179.232L330.918 179.252Z" fill="#010101"/>
<path d="M282.578 137.412C280.228 138.102 277.958 138.912 275.468 139.012C274.918 138.992 274.258 138.672 273.978 138.092C273.618 137.382 273.828 136.632 274.308 136.132C274.788 135.662 275.378 135.382 275.888 135.102C277.508 134.272 279.168 133.652 280.838 133.002C282.928 132.172 285.318 130.932 287.848 131.022C289.108 131.062 290.368 131.292 291.588 131.712C292.808 132.152 293.988 132.732 295.048 133.712L294.988 134.312C291.468 136.182 288.938 137.232 285.388 137.492C282.458 137.412 279.338 138.032 276.448 138.522C276.428 138.522 276.388 138.522 276.438 138.492C276.628 138.322 276.888 137.942 276.918 137.632C277.038 137.232 276.768 136.452 276.358 136.212C276.268 136.132 275.928 135.982 275.958 136.052C276.708 136.342 278.248 136.402 279.078 136.512L282.528 136.812L282.598 137.412H282.578Z" fill="#010101"/>
<path d="M308.928 173.483C308.118 173.633 307.378 173.633 306.598 173.583C306.138 173.493 305.618 173.412 305.128 173.452C304.188 173.372 305.088 171.873 305.408 171.343C305.688 170.923 306.038 170.393 306.538 170.083C307.388 169.653 308.378 169.122 309.208 169.062C309.788 169.062 309.318 169.873 309.398 170.163L309.438 170.793C309.438 171.553 309.428 172.233 309.328 173.053L308.918 173.493L308.928 173.483Z" fill="#010101"/>
<path d="M262.438 127.552C270.268 127.872 277.378 135.712 282.948 140.592C286.538 144.142 288.668 148.552 289.548 153.702L289.058 154.052C287.428 153.262 286.068 152.292 284.808 151.282C282.348 149.242 280.078 147.092 278.378 144.392C277.218 142.452 275.748 140.442 274.348 138.672C271.888 135.732 269.438 132.622 266.378 130.312C265.158 129.402 263.858 128.572 262.368 128.162L262.438 127.562V127.552Z" fill="#010101"/>
<path d="M292.298 139.952C289.848 138.062 287.388 136.432 284.768 134.872C283.528 134.132 281.938 133.892 280.998 132.712C280.038 131.572 279.208 130.272 278.668 128.122L278.938 127.582C280.038 127.172 280.998 127.132 281.908 127.182C283.638 127.332 285.288 127.882 286.378 129.252C286.898 129.912 287.378 130.612 287.898 131.232C289.988 133.712 291.728 136.542 292.788 139.602L292.298 139.952Z" fill="#010101"/>
<path d="M340.408 142.382C332.338 144.502 323.438 144.072 316.098 139.872L317.308 138.472C319.868 141.542 322.078 144.772 323.768 148.412C325.508 152.142 326.728 157.162 324.008 160.842L322.428 162.992L321.418 160.432C317.608 151.312 309.558 133.902 299.298 131.492C298.038 131.192 295.448 130.572 294.178 130.272L295.198 127.762C295.468 127.082 298.108 120.572 298.298 120.122C300.008 119.632 301.708 119.002 303.228 118.092L305.318 116.882C308.098 121.702 311.608 126.492 315.938 129.692C321.968 134.182 327.728 134.622 334.678 132.292C338.768 130.892 343.098 128.892 345.238 125.122C346.228 123.502 346.648 121.452 346.408 119.592L346.738 113.502L350.308 117.262C352.218 119.412 353.368 122.182 353.628 125.032C354.308 133.362 347.058 139.022 340.408 142.382ZM340.158 141.832C345.568 137.422 352.778 130.232 348.698 122.822C348.228 122.032 347.668 121.232 347.018 120.602L350.918 118.272C353.448 127.942 344.898 135.362 336.648 138.072C321.238 144.122 309.388 134.572 302.258 121.572L305.668 122.522C304.118 123.332 302.478 123.972 300.788 124.412L302.348 123.032L299.408 129.552L297.898 126.442L300.408 127.142C303.248 127.822 306.018 129.572 308.078 131.492C316.008 139.172 320.408 149.282 324.228 159.412L321.638 159.002C325.468 153.582 319.198 144.252 315.858 139.662L317.068 138.262C323.808 142.562 332.438 143.332 340.158 141.812V141.832Z" fill="#010101"/>
<path d="M281.938 123.822C285.428 123.672 288.828 124.302 292.288 124.182C294.718 124.272 296.338 126.162 297.378 128.372L297.228 128.952C295.218 130.352 292.798 131.082 290.668 129.902C289.498 129.082 288.268 128.522 287.018 127.862C285.268 126.802 283.348 125.622 281.728 124.392L281.938 123.832V123.822Z" fill="#010101"/>
<path d="M304.178 120.472C303.218 120.102 302.328 119.562 301.478 119.022C300.988 118.632 300.368 118.172 299.778 117.902C298.618 117.022 300.188 115.262 301.148 114.422L301.708 114.192C302.758 114.132 303.998 114.132 304.838 114.602C305.448 114.882 304.958 115.692 304.998 116.272L305.018 117.162C304.968 118.162 304.898 119.122 304.698 120.162L304.178 120.462V120.472Z" fill="#010101"/>
<path d="M330.158 113.732C330.158 113.732 329.148 119.482 324.938 124.792C320.808 126.412 314.228 127.282 309.718 127.732C307.528 125.232 305.758 122.592 304.438 120.312C312.688 115.752 313.458 107.532 313.458 107.532C310.518 110.992 307.008 113.132 303.418 114.392L310.768 97.2424C331.688 104.242 330.158 113.732 330.158 113.732Z" fill="black"/>
<path d="M330.458 113.782C329.468 117.842 327.708 121.672 325.358 125.122L325.298 125.212L325.138 125.282C320.058 127.502 314.608 128.552 309.158 129.322L308.588 128.712C306.028 126.002 303.868 122.932 301.938 119.752L303.558 118.702C307.148 116.512 309.868 112.982 310.858 108.892C310.968 108.412 311.108 107.732 311.138 107.312L315.238 109.042C312.418 112.552 308.588 115.352 304.348 117.022L298.598 119.292L300.858 113.282C303.308 106.532 306.128 99.8824 309.308 93.4424L311.718 94.4224C319.188 97.2824 330.648 104.822 330.468 113.772L330.458 113.782ZM329.868 113.682C329.178 104.662 316.858 102.322 309.838 100.052L313.498 98.4124C311.308 104.242 308.738 109.902 305.988 115.492L302.498 111.762C306.008 110.752 309.208 108.792 311.688 106.022L316.808 100.322L315.788 107.752C315.048 112.312 312.578 116.512 309.048 119.452C307.908 120.432 306.618 121.202 305.328 121.912L306.028 119.392C307.408 121.982 309.008 124.462 310.858 126.742L309.578 126.232C314.648 125.862 319.868 125.722 324.748 124.292L324.528 124.462C325.188 123.702 325.838 122.922 326.388 122.072C328.098 119.572 329.318 116.652 329.868 113.692V113.682Z" fill="#010101"/>
<path d="M300.198 122.382C298.258 123.922 295.948 124.962 293.568 125.612C292.408 125.912 291.198 126.742 289.968 126.232C288.588 125.752 287.358 124.672 286.628 123.342L286.688 122.742C287.588 121.612 288.798 120.592 290.128 120.232C291.228 119.872 292.268 120.632 293.308 120.822C294.388 121.022 295.478 121.212 296.568 121.372C297.688 121.562 298.828 121.672 300.028 121.812L300.198 122.382Z" fill="#010101"/>
<path d="M303.518 114.682C299.708 117.272 295.188 118.052 290.698 118.652H290.888C289.798 118.772 289.068 118.892 288.218 118.802C285.578 118.422 283.178 116.942 281.728 114.582L281.918 114.012C283.578 113.202 285.098 112.802 286.788 112.612C288.118 112.412 289.768 112.612 290.888 113.172C292.908 113.572 294.968 113.982 297.048 114.132C299.138 114.302 301.208 114.272 303.318 114.112L303.518 114.682Z" fill="#010101"/>
<path d="M321.188 142.382C326.688 144.182 332.578 145.622 338.288 144.602C340.768 144.112 342.438 142.612 344.268 141.112C346.068 139.682 347.628 137.422 349.788 134.752L350.378 134.852C351.508 138.292 350.948 142.042 348.788 145.062C344.308 151.062 335.188 149.852 329.108 147.462C326.158 146.252 323.398 144.772 320.888 142.912L321.178 142.392L321.188 142.382Z" fill="#010101"/>
<path d="M296.738 108.832C296.658 112.222 293.908 114.792 291.378 116.672L291.208 116.792L290.888 116.812C290.888 116.812 291.378 116.662 291.368 116.662C289.978 117.742 287.368 119.202 286.338 119.662C281.678 122.512 276.328 124.432 270.758 124.512C259.558 124.562 248.598 118.032 242.648 108.782C239.588 104.312 237.678 99.2124 236.288 94.0124L236.808 93.7124C240.458 97.4824 243.338 101.682 246.948 105.382C250.388 108.982 253.888 112.342 257.688 115.292C265.598 121.562 276.248 121.792 285.148 117.472C287.028 116.812 288.928 116.012 290.658 114.992L290.868 115.002C290.918 115.002 290.378 115.142 290.388 115.142C292.868 113.692 295.608 111.782 296.128 108.782L296.728 108.822L296.738 108.832Z" fill="#010101"/>
<path d="M296.738 108.772C296.848 119.082 289.608 128.282 280.588 132.732C271.388 137.352 260.888 138.682 250.748 138.612C238.688 136.382 224.478 132.592 219.018 120.342C215.828 113.802 213.408 106.962 211.808 99.8723L212.358 99.6423C216.868 106.582 220.658 113.832 225.488 120.462C228.828 124.622 233.848 127.092 238.668 129.372C242.758 131.242 247.218 132.812 251.598 133.832C254.328 133.962 261.428 134.022 265.538 133.422C279.788 132.052 294.498 124.402 296.118 108.772H296.718H296.738Z" fill="#010101"/>
<path d="M231.668 110.072C235.358 114.772 239.658 119.002 244.838 121.962C249.278 123.902 252.378 125.992 256.398 129.332L256.308 129.922C252.048 131.542 246.868 130.662 243.358 127.752C242.518 127.022 240.898 125.492 240.138 124.692C236.088 120.702 232.938 115.712 231.128 110.332L231.668 110.072Z" fill="#010101"/>
<path d="M247.188 130.602C252.158 145.232 252.508 164.702 236.998 173.022C228.918 177.952 220.348 182.802 210.858 184.322L209.998 179.832C217.718 176.812 225.748 169.662 223.218 160.602L224.918 162.712C216.628 158.542 208.618 152.902 204.428 144.362C202.458 140.092 202.708 135.352 202.158 130.822C201.778 126.462 201.488 122.092 201.338 117.712L201.928 117.622C203.858 123.922 205.448 130.232 206.938 136.612C208.548 146.722 220.538 153.382 228.948 157.822L229.238 159.212C232.088 171.302 222.028 180.672 211.448 184.182L210.588 179.692C216.388 179.022 221.918 176.752 227.218 174.322C231.238 172.412 235.318 170.282 239.068 167.842C245.158 163.552 247.968 156.102 248.428 148.812C248.848 142.782 248.148 136.612 246.608 130.762L247.178 130.572L247.188 130.602Z" fill="#010101"/>
<path d="M220.108 119.932C220.908 126.872 222.368 133.732 224.988 140.192C225.618 141.762 226.468 143.212 227.358 144.582C229.138 147.332 230.478 150.052 232.368 152.732C233.318 154.072 234.378 155.392 235.608 156.912L235.368 157.462C231.338 157.502 227.558 155.192 224.978 152.222C221.188 147.792 220.388 141.722 219.368 136.222C218.718 130.802 218.698 125.292 219.508 119.912L220.108 119.942V119.932Z" fill="#010101"/>
<path d="M235.768 133.712C240.398 142.032 242.428 152.062 240.068 161.452C238.538 167.372 233.008 172.152 226.908 172.712L226.618 172.192C228.908 168.952 230.898 166.392 232.328 163.562C233.778 160.712 235.508 158.012 236.238 154.822C237.678 147.942 236.978 140.792 235.218 133.972L235.768 133.732V133.712Z" fill="#010101"/>
<path d="M242.388 159.982C243.028 163.042 242.428 166.062 241.538 169.022C241.068 170.452 239.588 171.262 238.128 171.362C237.258 171.452 236.358 171.212 235.608 170.722L235.388 170.162C235.658 168.572 235.558 167.842 235.898 166.542C236.028 166.122 236.278 165.862 236.648 165.642C237.988 164.962 238.838 163.652 239.798 162.522C240.478 161.692 241.118 160.792 241.788 159.872L242.378 159.982H242.388Z" fill="#010101"/>
<path d="M213.058 119.922C214.338 127.802 215.678 135.862 219.188 143.062C221.308 147.452 222.168 151.222 224.448 155.942L224.088 156.422C220.428 155.732 217.498 152.912 215.588 149.892C212.858 145.392 212.748 139.932 212.048 134.882C211.698 129.882 211.768 124.862 212.468 119.912H213.068L213.058 119.922Z" fill="#010101"/>
<path d="M211.018 124.252C211.758 131.512 207.508 138.352 202.368 143.132C201.408 143.912 200.388 144.792 199.418 145.542C198.708 146.002 196.968 147.242 196.278 147.682C189.968 151.352 183.328 154.302 175.938 155.162C168.818 156.012 161.068 152.922 156.558 147.362C154.288 144.652 152.628 141.532 151.988 138.152L152.538 137.922C163.298 150.972 178.828 151.942 193.328 144.782C200.278 141.592 207.048 136.422 209.538 128.912C210.048 127.432 210.398 125.852 210.428 124.302L211.028 124.232L211.018 124.252Z" fill="#010101"/>
<path d="M200.488 130.452C196.818 142.962 198.408 159.152 211.968 164.672L220.348 168.482L211.048 169.712C200.798 170.962 193.128 162.942 191.528 153.442C191.098 150.652 191.018 147.792 191.358 145.002L191.958 144.922C193.958 149.452 195.978 154.712 199.268 158.342C201.908 161.332 205.158 163.462 209.008 164.222C209.468 164.332 210.028 164.362 210.458 164.402L209.538 169.442C198.718 163.342 194.648 152.332 196.838 140.462C197.448 136.912 198.448 133.472 199.938 130.232L200.498 130.452H200.488Z" fill="#010101"/>
<path d="M189.628 120.642C192.838 129.252 191.648 140.442 181.638 143.672C176.198 145.562 170.308 145.582 165.008 143.352C161.938 142.172 159.118 140.542 156.618 138.332L156.828 137.772C161.278 137.602 165.298 138.142 169.198 138.462C176.628 139.302 184.398 141.172 187.948 132.582C189.388 129.072 189.518 124.842 189.058 120.802L189.638 120.642H189.628Z" fill="#010101"/>
<path d="M163.668 145.672L162.958 152.252C162.958 152.252 140.678 173.302 124.108 170.452C124.108 170.452 117.158 171.882 112.698 167.952C112.698 167.952 112.168 193.302 125.708 190.342C125.708 190.342 122.848 197.542 112.698 195.402C112.698 195.402 96.838 195.332 96.658 162.572C96.658 162.572 98.978 186.352 108.598 190.342C108.598 190.342 113.408 192.012 115.018 191.832C115.018 191.832 103.968 182.742 108.778 159.932C108.778 159.932 119.468 168.662 142.998 158.862C142.998 158.862 154.578 152.472 157.608 148.722C160.638 144.972 163.668 145.682 163.668 145.682V145.672Z" fill="black"/>
<path d="M163.918 145.492C163.748 147.762 163.588 150.102 163.368 152.442C160.648 155.042 157.778 157.452 154.788 159.722C145.868 166.182 135.478 172.932 123.908 171.602H124.348C120.018 172.382 115.268 171.882 111.788 168.982L114.088 167.972C114.188 172.652 114.768 177.632 116.348 182.032C117.768 186.112 120.698 189.812 125.328 188.572L128.738 187.812L127.378 190.982C124.828 196.802 118.078 198.592 112.288 197.322L112.688 197.362C111.978 197.342 111.568 197.262 111.048 197.162C96.898 193.492 94.5279 174.872 94.1479 162.572L99.158 162.312C99.938 168.202 101.308 174.412 103.648 179.852C104.818 182.512 106.328 185.052 108.128 186.542C109.608 187.832 112.538 188.422 114.638 188.752C114.748 188.762 114.748 188.752 114.678 188.752L113.068 194.172C112.778 193.932 112.668 193.812 112.478 193.642C104.848 185.832 103.608 173.992 105.178 163.672C105.618 161.372 106.538 156.672 106.978 154.362L110.558 157.722C112.548 159.162 115.048 159.892 117.458 160.452C125.718 162.062 134.468 160.022 142.328 157.252C145.048 155.892 149.738 153.372 152.908 151.322C154.378 150.362 155.828 149.382 157.048 148.132C158.678 146.332 161.108 144.852 163.618 145.322L163.668 145.332C163.638 145.322 163.858 145.382 163.908 145.462L163.918 145.492ZM163.428 145.842C163.458 145.952 163.678 145.972 163.528 145.952C160.978 145.862 159.128 147.902 157.748 149.802C153.768 154.122 148.718 157.212 143.828 160.362C132.808 165.432 117.978 169.212 106.998 162.112L111.538 160.512C109.828 170.162 109.938 181.582 116.778 189.272C116.848 189.342 116.988 189.472 116.968 189.462L115.358 194.882C112.928 195.022 110.588 194.112 108.328 193.422C103.168 191.742 100.328 186.662 98.458 182.032C96.058 175.752 94.868 169.452 94.168 162.812L99.1779 162.552C99.3079 171.612 99.888 182.012 105.838 189.282C107.448 191.172 109.508 192.662 111.898 193.262C112.418 193.382 112.708 193.412 113.108 193.452C117.108 194.442 122.038 193.652 124.048 189.682L126.098 192.092C124.688 192.362 123.188 192.442 121.678 192.122C114.388 190.342 112.558 181.842 111.698 175.552C111.258 172.142 111.278 168.492 111.378 165.032L113.618 166.912C116.408 169.382 120.568 169.812 124.128 169.242C134.968 170.922 145.348 164.552 154.038 158.692C157.028 156.592 159.938 154.342 162.668 151.932L162.538 152.192C162.808 150.102 163.118 148.002 163.428 145.832V145.842Z" fill="black"/>
<path d="M101.598 175.622C101.448 185.202 100.058 195.332 94.408 203.412C90.558 208.852 83.728 211.422 77.188 210.272L77.438 204.692C88.068 201.712 87.248 192.412 85.878 183.382L86.428 183.142C94.228 192.742 93.338 207.462 79.358 210.142C78.958 210.212 78.648 210.262 78.108 210.312L78.358 204.732C89.608 208.312 95.988 195.632 98.608 186.522C99.668 182.962 100.458 179.292 100.998 175.582L101.598 175.612V175.622Z" fill="#010101"/>
<path d="M94.0079 195.562C98.9379 199.342 103.848 203.832 105.288 210.202C105.758 212.482 105.298 215.222 103.858 217.302L103.048 214.172C103.678 214.312 104.588 214.282 105.138 213.852C107.528 211.712 106.918 207.492 107.078 204.442L107.418 205.892C104.718 199.982 102.858 191.962 106.718 186.202L107.288 186.402C107.598 192.672 110.878 198.282 113.378 203.872C113.028 208.972 112.328 214.972 107.348 217.912C105.588 218.782 103.558 218.822 101.758 218.142C101.528 218.072 99.1679 216.952 98.8779 216.822L100.518 214.832C103.998 210.462 100.188 204.472 97.4279 200.552C96.2479 198.992 94.9979 197.442 93.6279 196.022L94.0179 195.562H94.0079Z" fill="#010101"/>
<path d="M99.5479 142.602C104.348 145.812 109.678 148.182 115.338 149.112C118.008 149.542 120.648 149.032 123.308 149.212C125.958 149.382 128.628 149.302 131.998 149.582L132.258 150.122C129.258 154.172 123.758 156.162 118.858 155.152C114.148 154.072 109.648 152.212 105.778 149.362C103.278 147.512 100.998 145.442 99.1279 143.022L99.5479 142.602Z" fill="#010101"/>
<path d="M117.208 141.022C122.128 144.872 128.198 147.272 134.418 146.822C135.878 146.712 137.298 146.352 138.658 145.842C141.478 144.832 144.228 144.092 147.158 143.182C148.778 142.702 150.338 142.182 152.078 141.862L152.458 142.322C150.578 146.492 146.878 149.622 142.588 151.102C136.468 152.652 129.618 151.542 124.248 148.302C121.278 146.462 118.708 144.172 116.748 141.402L117.198 141.012L117.208 141.022Z" fill="#010101"/>
<path d="M98.3781 141.132C100.458 144.872 102.918 148.362 106.078 151.182C107.508 152.462 109.368 152.992 110.768 154.232L115.728 158.192V158.792C112.348 161.142 107.428 160.292 104.748 157.362C100.818 152.842 98.2881 147.222 97.7881 141.282L98.3681 141.122L98.3781 141.132Z" fill="#010101"/>
<path d="M98.3881 138.272C99.5681 143.532 101.238 148.712 104.208 153.202C107.038 156.562 108.428 159.352 110.368 163.772L110.048 164.282C106.478 164.282 103.058 162.232 101.078 159.312C99.1181 155.842 98.1881 151.752 97.6281 147.842C97.2581 144.652 97.2581 141.412 97.7881 138.262H98.3881V138.272Z" fill="#010101"/>
<path d="M85.818 145.442C83.678 148.772 82.728 152.592 83.198 156.422C83.328 158.232 83.868 160.002 84.618 161.652C85.058 162.432 85.588 163.232 85.978 164.022C87.758 167.292 88.998 170.542 89.758 174.342L89.318 174.752C87.798 174.282 86.488 173.522 85.228 172.692C84.068 171.762 82.988 170.712 82.038 169.552C80.188 167.122 79.538 163.982 79.238 160.942C78.988 159.092 79.078 157.092 79.358 155.232C80.128 151.282 82.238 147.402 85.408 145.022L85.818 145.452V145.442Z" fill="#010101"/>
<path d="M80.1881 147.852C75.9581 149.872 73.2781 154.262 73.0881 158.852L72.9781 161.242C72.7381 165.382 71.4281 169.412 69.8881 173.212C68.5881 176.262 67.1181 179.172 65.3381 182.052C63.0981 184.652 60.6781 186.712 57.3781 187.912C52.8981 189.582 48.1681 187.672 48.9781 182.182C49.0181 181.912 49.0481 181.712 49.1481 181.352L53.2981 183.402C53.1981 183.602 52.9281 184.152 52.8781 184.432C51.7681 188.582 64.2481 187.362 66.6481 187.122C78.9081 185.992 83.3481 172.522 85.0381 161.742L85.6381 161.712C86.4181 165.502 86.4081 169.432 85.9081 173.282C84.3281 185.372 75.9881 194.122 63.3281 193.482C59.0381 193.352 54.7981 193.142 50.9481 190.752C47.4081 188.522 47.0581 183.902 49.4781 180.682L53.6281 182.732C53.5281 183.032 53.4481 183.672 53.5281 183.962C53.5281 183.962 53.5081 183.972 53.5181 183.962C53.4981 183.962 53.5181 183.982 53.5381 183.982C53.6081 184.042 53.9781 184.172 54.4981 184.152C56.3081 184.102 57.8681 183.312 59.4581 182.282C60.5281 181.572 61.6281 180.652 62.4881 179.772L62.3681 179.922C64.1381 177.462 65.7681 174.712 67.1781 171.952C68.9081 168.482 70.4181 164.872 70.9581 161.042C71.2181 158.652 71.5681 155.962 72.7281 153.822C74.2481 150.792 76.8781 148.432 79.9881 147.282L80.1881 147.852Z" fill="#010101"/>
<path d="M88.0481 176.732C87.9281 181.532 85.9081 186.572 81.9881 189.612C79.9181 191.242 77.2581 192.812 74.5081 192.452C71.8381 192.182 69.3481 190.902 67.7681 188.722L67.9481 188.152C69.8781 187.402 72.3081 186.952 74.2981 186.452C76.0281 185.962 77.7581 186.282 79.4281 185.552C83.1581 183.812 85.6881 180.342 87.4581 176.622L88.0481 176.732Z" fill="#010101"/>
<path d="M63.218 157.362C60.988 160.372 58.618 163.282 55.668 165.732C54.518 166.642 53.228 167.542 51.708 167.872C51.198 168.002 50.488 167.962 49.998 167.842C48.218 167.472 46.328 167.132 44.498 166.602C33.408 163.652 32.448 156.252 39.708 148.162L40.688 150.802C35.978 150.572 29.608 151.342 27.538 156.232L27.678 155.722C27.468 158.042 27.458 160.442 27.868 162.712C27.898 162.872 27.908 163.242 27.868 163.472C27.568 165.662 25.048 166.182 23.638 164.662C20.058 160.412 18.098 153.962 19.608 148.452L24.278 150.192C22.308 155.772 21.388 162.302 22.738 167.662C26.028 180.262 41.088 180.272 51.948 178.752C58.208 177.822 64.488 176.232 70.688 174.262L70.948 174.802C65.358 178.302 59.248 180.942 52.798 182.762C25.838 190.382 8.63803 175.562 19.678 148.252L24.348 149.992C23.128 153.602 24.538 158.492 26.658 161.582C25.678 160.832 23.898 161.382 23.638 162.792C23.608 162.862 23.608 163.102 23.608 163.112C23.268 160.482 23.408 157.812 23.758 155.192C26.208 148.332 34.648 146.912 41.048 147.632L44.168 148.002C40.618 151.692 33.948 158.172 40.338 162.422C43.268 164.452 46.898 165.302 50.388 166.222C51.058 166.452 51.788 166.292 52.588 165.962C56.648 163.982 59.748 160.372 62.728 156.972L63.208 157.332L63.218 157.362Z" fill="#010101"/>
<path d="M34.028 178.522C36.938 182.412 40.458 186.072 45.018 187.752C47.038 188.462 48.948 187.952 50.998 188.052C53.028 188.082 55.318 187.762 58.358 187.662L58.708 188.152C57.508 191.022 55.018 193.062 52.018 193.962C45.958 195.522 40.018 190.802 36.848 186.082C35.358 183.772 34.198 181.342 33.488 178.762L34.038 178.512L34.028 178.522Z" fill="#010101"/>
<path d="M56.2979 187.512C53.3079 193.352 48.5779 199.712 41.4979 200.472C34.5679 200.862 27.9879 195.722 26.4079 188.982C26.2879 188.512 26.1979 188.112 26.1179 187.512L29.9779 187.352C30.1679 190.022 30.6279 192.872 31.3979 195.462C33.2279 201.862 37.0079 206.912 44.1079 204.652C48.0979 203.752 51.8679 202.242 55.6479 200.562C63.4079 196.902 70.6179 192.412 77.5779 187.162L78.0379 187.552C74.8979 192.692 70.5479 196.962 65.8879 200.712C61.0879 204.492 55.7679 207.662 49.8679 209.532C43.0679 211.672 35.5579 211.912 30.9679 205.442C27.1479 199.962 26.2479 193.782 26.1179 187.372L29.9779 187.212C30.2279 189.982 31.5179 192.752 33.5479 194.682C42.2079 202.572 50.6979 195.282 55.7679 187.222L56.2979 187.502V187.512Z" fill="#010101"/>
<path d="M39.008 204.512C43.108 209.522 48.508 210.632 53.218 205.972C55.098 204.242 56.408 201.922 57.718 199.802C59.058 197.712 57.588 195.912 55.938 193.892L56.118 193.322C57.958 193.092 59.868 193.502 61.558 194.962C65.148 198.092 63.618 203.902 60.348 206.642C56.348 210.062 51.078 213.652 45.568 211.882C42.178 210.682 39.808 207.952 38.488 204.802L39.018 204.512H39.008Z" fill="#010101"/>
<path d="M72.6881 198.002C60.1381 203.402 49.7481 216.052 63.7581 226.362C67.0181 228.782 71.2381 230.512 75.8081 232.332V232.932C65.8581 235.932 53.8281 230.862 52.6581 219.592C51.0781 210.252 57.6581 203.242 65.6381 199.782C67.8581 198.762 70.1481 197.962 72.5081 197.422L72.6881 197.992V198.002Z" fill="#010101"/>
<path d="M61.1382 224.912C56.6882 235.732 46.6282 235.802 37.6282 230.392L40.6782 228.152C41.1282 229.332 41.7782 230.662 42.4782 231.822C48.3782 242.202 57.4082 237.772 65.3582 232.612L64.9482 233.182C66.1382 231.412 67.3582 229.682 68.7582 228.052L69.3082 228.292C69.0582 230.422 68.6182 232.502 68.1282 234.572C57.3982 249.362 41.9582 247.072 36.7982 229.272L35.3582 223.982L39.8482 227.032C47.2482 232.662 55.2982 233.442 60.5682 224.672L61.1182 224.902L61.1382 224.912Z" fill="#010101"/>
<path d="M72.278 229.832C68.438 233.842 64.728 238.072 61.728 242.742C60.608 244.642 59.408 246.572 59.368 248.692C61.168 256.632 61.408 260.842 70.868 260.922L69.958 263.622C61.838 257.162 63.518 247.472 69.288 240.072L72.458 235.472C72.508 236.232 72.788 241.892 72.808 242.462C73.368 248.332 77.338 253.152 82.038 256.522C83.638 257.682 85.168 258.812 86.378 260.482C90.468 265.912 86.308 271.752 81.528 274.632C80.598 275.242 79.598 275.792 78.508 276.302C75.138 276.382 71.768 276.572 68.518 275.312C67.938 275.032 67.458 274.772 66.878 274.202L66.738 274.062L66.838 274.162C67.068 274.352 67.218 274.492 67.768 274.722C66.158 275.142 71.468 275.192 71.888 272.322C72.018 271.562 71.828 270.922 71.568 270.422C73.598 272.792 77.598 276.442 81.468 276.112C84.398 276.032 88.458 275.832 90.178 274.012C93.758 270.582 93.358 264.002 93.358 259.012C93.348 256.052 93.208 253.102 93.008 250.152C92.758 247.222 92.508 244.232 91.768 241.412L92.308 241.152C93.058 242.532 93.588 243.942 94.068 245.392C95.718 250.442 96.648 255.712 97.298 260.972C97.788 264.952 98.028 269.162 96.778 273.042C95.968 275.782 94.138 278.232 91.688 279.722C87.808 281.852 83.208 282.382 78.928 282.092C73.658 281.252 69.488 277.842 66.388 273.752C65.958 273.132 65.648 272.322 65.798 271.372C66.228 268.492 71.548 268.542 69.948 268.972C70.718 269.302 70.908 269.532 71.338 269.982C71.298 269.862 70.988 269.702 71.068 269.742C73.088 270.472 75.568 270.492 77.748 270.582L76.678 270.822C79.088 269.692 83.068 267.652 82.898 264.722C82.558 262.872 80.638 261.462 79.198 260.312C73.748 256.122 69.148 249.802 68.838 242.672C68.818 242.112 68.818 241.692 68.878 241.062L72.368 242.502L70.698 244.722C66.998 249.992 66.488 256.772 71.698 261.192L75.338 264.242C66.538 263.662 59.568 263.562 58.218 253.012C57.978 251.022 57.058 249.052 57.718 247.082C58.968 243.262 61.478 240.392 63.958 237.422C66.448 234.592 69.098 231.932 71.868 229.392L72.278 229.822V229.832Z" fill="#010101"/>
<path d="M92.9881 259.552C97.0381 265.192 104.338 276.352 99.1281 283.082C95.9381 287.032 90.3681 288.282 85.5681 287.112C84.6381 286.902 83.8181 286.682 82.8081 286.262L85.4381 283.692C89.8581 290.922 99.4281 285.862 103.888 281.082C111.008 272.092 100.618 253.002 96.4281 243.692L96.9081 243.332C103.398 249.582 108.558 257.222 111.338 265.872C113.688 273.132 112.948 282.022 106.058 286.692C99.3881 291.342 89.4781 295.092 83.3381 287.612C82.0681 286.272 80.4081 281.912 79.5681 280.222L84.5081 282.732C87.0181 283.932 90.2381 284.472 92.9481 283.702C94.5081 283.302 95.8981 282.362 97.0881 281.242C97.9281 280.372 98.3881 279.302 98.5481 278.062C99.0881 271.802 95.5581 265.322 92.4881 259.902L92.9781 259.562L92.9881 259.552Z" fill="#010101"/>
<path d="M118.038 288.542C114.008 289.402 109.728 288.762 106.058 286.862C103.548 285.902 101.838 283.412 101.978 280.702C101.978 279.592 102.358 278.542 102.958 277.602L103.548 277.502C105.938 279.102 106.778 279.682 108.218 281.002C109.098 282.482 110.108 283.842 111.658 284.742C113.608 286.142 115.738 287.102 118.058 287.942L118.038 288.542Z" fill="#010101"/>
<path d="M158.508 237.222C160.43 237.222 161.988 235.924 161.988 234.322C161.988 232.721 160.43 231.422 158.508 231.422C156.586 231.422 155.028 232.721 155.028 234.322C155.028 235.924 156.586 237.222 158.508 237.222Z" fill="#231F20" stroke="#010101" stroke-width="1.83" stroke-linejoin="bevel"/>
<path d="M190.728 214.902C189.578 218.852 185.398 221.392 181.458 221.792C184.938 220.012 188.318 218.122 190.728 214.902Z" fill="#010101"/>
<path d="M195.248 176.412C197.878 179.942 198.788 184.862 197.148 189.002C194.688 185.292 193.858 180.672 195.248 176.412Z" fill="#010101"/>
<path d="M203.678 192.153L197.498 197.913C189.248 197.103 181.858 196.603 175.298 196.323C165.788 195.913 158.028 195.973 151.928 196.233H151.918C150.758 196.283 149.678 196.343 148.638 196.403C148.348 196.423 148.068 196.433 147.788 196.453C141.628 196.843 137.718 197.403 135.918 197.703C135.148 197.833 134.768 197.913 134.768 197.913L126.928 191.543L133.108 190.333L135.248 194.123L136.668 190.333L153.238 190.783L171.438 191.273L203.678 192.153Z" fill="black" stroke="black" stroke-width="2.26"/>
<path d="M284.948 194.122L280.428 199.032L277.418 198.822L261.848 197.732L236.818 195.982C236.658 195.962 236.498 195.952 236.338 195.952H236.288L235.148 195.872L228.658 195.412L228.158 195.382V191.732L229.338 191.782L237.908 192.142L259.488 193.052L277.968 193.832L284.948 194.122Z" fill="black" stroke="black" stroke-width="2.26"/>
<path d="M123.488 183.782C123.488 183.782 132.038 167.622 142.738 164.292C153.438 160.962 193.588 162.392 195.248 164.292C196.908 166.192 198.098 176.412 190.738 176.412C183.378 176.412 183.808 171.902 155.098 174.272C128.208 179.502 123.498 183.772 123.498 183.772L123.488 183.782Z" fill="black" stroke="#010101" stroke-linecap="round" stroke-linejoin="bevel"/>
<path d="M284.598 180.452C284.598 180.452 289.828 164.342 280.318 162.302C270.808 160.262 234.578 167.862 234.578 167.862C234.578 167.862 229.698 179.502 235.878 178.792C242.058 178.082 262.968 172.992 268.198 173.042C273.428 173.092 284.598 180.452 284.598 180.452Z" fill="black" stroke="#010101" stroke-linecap="round" stroke-linejoin="bevel"/>
<path d="M228.658 195.412C227.088 204.342 225.908 215.642 229.228 218.752H238.968C238.968 218.752 251.128 231.112 227.108 246.032" stroke="#010101" stroke-width="4.95" stroke-linecap="round" stroke-linejoin="bevel"/>
<path d="M212.758 241.042C215.568 240.112 220.638 240.842 221.858 243.892C218.718 243.032 215.538 242.952 212.758 241.042Z" fill="#010101"/>
<path d="M183.808 268.132C183.808 268.132 206.778 261.362 214.618 264.212C222.458 267.062 231.128 265.822 231.128 265.822L243.838 270.982" stroke="#010101" stroke-width="3" stroke-linecap="round" stroke-linejoin="bevel"/>
<path d="M207.128 270.982C213.858 271.812 220.238 275.052 227.108 274.192C221.828 279.312 211.638 275.622 207.128 270.982Z" fill="#010101"/>
</svg>
